<?xml version="1.0" encoding="utf-8" standalone="no"?>
<!DOCTYPE svg PUBLIC "-//W3C//DTD SVG 1.1//EN" "http://www.w3.org/Graphics/SVG/1.1/DTD/svg11.dtd">
<svg version="1.1" xmlns="http://www.w3.org/2000/svg" xmlns:xlink="http://www.w3.org/1999/xlink" width="595pt" height="842pt" viewBox="0 0 595 842" xml:space="preserve" enable-background="new 0 0 595 842">
<g color-interpolation="linearRGB" transform="scale(0.12,0.12)">
<g>
	<rect x="0" y="0" width="4960.62" height="7015.734" fill="#FFFFFF" fill-opacity="1" />
</g>
<g id="Map_Frame">
<g id="Precinct_SVG">
<clipPath id="cp_2">
<path d="M4960.62 7015.734 L4960.62 0 L0 9.094947e-13 L0 7015.734 Z " />
</clipPath>
<g clip-path="url(#cp_2)">
<g transform="matrix(8.3333333 0 0 -8.3333333 2480.31 3507.867)">
<path d="M141.52282 -207.8154 L141.82532 -211.28995 L145.39665 -252.31219 L146.43439 -257.99728 L146.43394 -258.01345 L148.94783 -259.83415 L174.91452 -278.27775 L148.86357 -280.47672 L143.5337 -280.97303 L79.242819 -286.4704 L73.986971 -286.89191 L8.0496238 -292.52801 L7.537108 -292.02836 L8.6788237 -273.8456 L4.0490062 -219.58239 L70.475264 -213.9617 L75.165975 -213.53917 L82.676341 -212.94102 L86.788489 -212.5925 L141.52282 -207.8154 Z "  fill="#828282" fill-rule="evenodd" stroke="#000000" fill-opacity="0" stroke-opacity="1"  stroke-width="1" stroke-linecap="round" stroke-linejoin="round" stroke-miterlimit="10" />
</g>
</g>
<g clip-path="url(#cp_2)">
<g transform="matrix(8.3333333 0 0 -8.3333333 2480.31 3507.867)">
<path d="M145.08633 -207.42123 L145.31917 -207.40205 L204.912 -202.49222 L207.85288 -202.24687 L209.37436 -202.10881 L205.39919 -155.51614 L197.26327 -156.25684 L194.0774 -116.27229 L176.94692 -117.69374 L175.68585 -101.28214 L234.87324 -96.331304 L236.2694 -96.195525 L237.91577 -96.190758 L239.45176 -96.142736 L241.30254 -96.218395 L243.68116 -96.446365 L261.04139 -98.591221 L261.0485 -98.594803 L261.96146 -98.707737 L267.80128 -103.43779 L281.89659 -267.11878 L282.07292 -269.15137 L281.17782 -269.22663 L246.6887 -272.15945 L241.84667 -272.56994 L239.106 -272.79981 L178.94316 -277.88273 L166.91648 -269.3616 L162.38477 -264.61746 L151.82522 -256.89244 L151.05489 -256.04562 L150.55625 -255.13652 L149.65493 -252.80409 L148.83927 -249.95758 L145.08633 -207.42123 Z "  fill="#828282" fill-rule="evenodd" stroke="#000000" fill-opacity="0" stroke-opacity="1"  stroke-width="1" stroke-linecap="round" stroke-linejoin="round" stroke-miterlimit="10" />
</g>
</g>
<g clip-path="url(#cp_2)">
<g transform="matrix(8.3333333 0 0 -8.3333333 2480.31 3507.867)">
<path d="M158.76826 -98.649975 L156.91528 -76.860768 L148.71097 -77.586526 L147.42716 -62.335235 L147.15463 -59.697641 L146.90914 -57.130462 L146.23524 -57.189745 L133.59566 -58.301825 L133.22823 -57.913763 L132.8405 -57.266589 L132.57538 -56.420591 L132.41364 -55.66936 L131.86309 -49.678915 L131.77298 -49.110428 L131.59756 -48.375354 L131.36001 -47.502968 L131.09693 -46.794102 L130.61634 -45.951814 L130.15498 -45.327884 L129.50745 -44.555741 L129.49425 -44.539996 L128.85636 -43.967386 L128.14073 -43.351045 L127.36405 -42.790289 L126.61888 -42.361988 L125.95037 -42.037589 L125.044 -41.617237 L124.77648 -41.406624 L124.43048 -41.134228 L123.98031 -40.578754 L123.68291 -39.960906 L123.60685 -39.459716 L122.38319 -25.295793 L121.99665 -21.559209 L120.47625 -4.3221367 L138.21401 -1.0128233 L140.83651 -0.34389981 L142.48918 0.24754782 L143.78847 0.8376941 L151.8391 6.0769334 L165.88426 15.218042 L166.73669 10.696508 L169.25224 -2.6466325 L171.30595 -13.360026 L173.33028 -25.763805 L206.31964 -53.018997 L206.87278 -53.346256 L210.75482 -56.5356 L217.24718 -62.740215 L219.0276 -63.660996 L222.5582 -66.261224 L255.83949 -93.685954 L255.95553 -94.579084 L254.56011 -94.842835 L239.8709 -93.286875 L175.49427 -98.665888 L175.35685 -97.189298 L158.76826 -98.649975 Z "  fill="#828282" fill-rule="evenodd" stroke="#000000" fill-opacity="0" stroke-opacity="1"  stroke-width="1" stroke-linecap="round" stroke-linejoin="round" stroke-miterlimit="10" />
</g>
</g>
<g clip-path="url(#cp_2)">
<g transform="matrix(8.3333333 0 0 -8.3333333 2480.31 3507.867)">
<path d="M134.20597 218.41506 L134.21752 216.61407 L134.2672 213.43831 L134.27904 212.56971 L134.43919 200.82183 L134.44867 200.1271 L134.2779 200.38313 L128.82371 208.5606 L128.31004 209.33501 L126.76391 211.52543 L116.59303 225.72113 L115.84601 226.77095 L115.82109 226.80597 L94.468379 256.81304 L90.08578 261.32525 L61.584429 241.20746 L66.38944 234.46671 L2.5630106 189.46785 L-7.3492101 220.02458 L-20.884603 261.75028 L-21.853728 264.7238 L-21.941731 265.0479 L-24.727022 264.20385 L-27.079657 263.57978 L-27.086564 263.57765 L-27.059686 263.49416 L-48.132503 257.06902 L-58.86092 253.79773 L-73.135458 249.44544 L-77.719071 263.64717 L-78.187366 265.09773 L-79.209679 268.26388 L-79.40572 268.86986 L-80.192784 268.62918 L-84.173056 267.41891 L-133.56223 252.44491 L-133.65461 252.41689 L-137.13297 262.39924 L-140.6069 272.36876 L-145.63288 286.7923 L-146.84809 290.6543 L-147.45996 292.59883 L-148.14533 294.53874 L-148.29279 296.84344 L-147.80978 298.8544 L-147.69034 299.0789 L-147.11888 299.46876 L-146.22516 299.83499 L-145.74864 299.93891 L-145.00852 300.1003 L-142.09382 300.53396 L-135.36394 301.53526 L-132.18592 302.05066 L-129.47867 302.48971 L-126.9083 302.74229 L-126.90699 302.74109 L-126.37368 302.2549 L-116.74007 303.37222 L-83.637181 306.69101 L-76.346873 307.32336 L-75.783798 307.427 L-72.575539 307.74865 L-53.058051 309.70535 L-52.906243 309.72057 L-52.896644 309.70647 L-48.063673 309.74005 L-47.715914 309.76052 L-47.245441 309.74009 L-46.643686 309.67871 L-44.802677 309.406 L-43.930922 309.22185 L-43.592376 309.15034 L-41.642388 308.73027 L-38.937704 308.10521 L-35.565474 307.24439 L0.88978705 294.83976 L3.5420953 294.02808 L52.695152 278.29518 L85.545254 267.77931 L94.038261 265.0553 L103.60371 261.97348 L112.52265 249.2786 L120.28055 238.23614 L122.27446 235.39806 L127.24286 228.32621 L134.20597 218.41506 Z "  fill="#828282" fill-rule="evenodd" stroke="#000000" fill-opacity="0" stroke-opacity="1"  stroke-width="1" stroke-linecap="round" stroke-linejoin="round" stroke-miterlimit="10" />
</g>
</g>
<g clip-path="url(#cp_2)">
<g transform="matrix(8.3333333 0 0 -8.3333333 2480.31 3507.867)">
<path d="M-94.785407 -51.452549 L-74.213819 -49.697443 L-71.56968 -81.203281 L-92.009303 -82.966415 L-94.785407 -51.452549 Z "  fill="#828282" fill-rule="evenodd" stroke="#000000" fill-opacity="0" stroke-opacity="1"  stroke-width="1" stroke-linecap="round" stroke-linejoin="round" stroke-miterlimit="10" />
</g>
</g>
<g clip-path="url(#cp_2)">
<g transform="matrix(8.3333333 0 0 -8.3333333 2480.31 3507.867)">
<path d="M47.180876 -39.255673 L67.61644 -37.555894 L70.412438 -68.996471 L49.872109 -70.73837 L47.180876 -39.255673 Z "  fill="#828282" fill-rule="evenodd" stroke="#000000" fill-opacity="0" stroke-opacity="1"  stroke-width="1" stroke-linecap="round" stroke-linejoin="round" stroke-miterlimit="10" />
</g>
</g>
<g clip-path="url(#cp_2)">
<g transform="matrix(8.3333333 0 0 -8.3333333 2480.31 3507.867)">
<path d="M-20.285064 -93.479991 L1.4598074 -91.623302 L5.5854069 -137.62786 L-16.315099 -139.52493 L-20.285064 -93.479991 Z "  fill="#828282" fill-rule="evenodd" stroke="#000000" fill-opacity="0" stroke-opacity="1"  stroke-width="1" stroke-linecap="round" stroke-linejoin="round" stroke-miterlimit="10" />
</g>
</g>
<g clip-path="url(#cp_2)">
<g transform="matrix(8.3333333 0 0 -8.3333333 2480.31 3507.867)">
<path d="M-84.807256 -162.2582 L-64.798859 -160.5643 L-62.117856 -192.07099 L-82.234498 -193.80053 L-84.807256 -162.2582 Z "  fill="#828282" fill-rule="evenodd" stroke="#000000" fill-opacity="0" stroke-opacity="1"  stroke-width="1" stroke-linecap="round" stroke-linejoin="round" stroke-miterlimit="10" />
</g>
</g>
<g clip-path="url(#cp_2)">
<g transform="matrix(8.3333333 0 0 -8.3333333 2480.31 3507.867)">
<path d="M56.773284 -150.13975 L77.194186 -148.39565 L79.912309 -179.84007 L59.501174 -181.62826 L56.773284 -150.13975 Z "  fill="#828282" fill-rule="evenodd" stroke="#000000" fill-opacity="0" stroke-opacity="1"  stroke-width="1" stroke-linecap="round" stroke-linejoin="round" stroke-miterlimit="10" />
</g>
</g>
<g clip-path="url(#cp_2)">
<g transform="matrix(8.3333333 0 0 -8.3333333 2480.31 3507.867)">
<path d="M-128.87686 198.00009 L-107.93047 204.35286 L-98.412651 174.45923 L-119.21891 168.12704 L-128.87686 198.00009 Z "  fill="#828282" fill-rule="evenodd" stroke="#000000" fill-opacity="0" stroke-opacity="1"  stroke-width="1" stroke-linecap="round" stroke-linejoin="round" stroke-miterlimit="10" />
</g>
</g>
<g clip-path="url(#cp_2)">
<g transform="matrix(8.3333333 0 0 -8.3333333 2480.31 3507.867)">
<path d="M-196.12634 45.259338 L-222.43686 4.3637415 L-243.43095 15.430691 L-251.59984 18.755789 L-257.31564 25.159704 L-280.36926 163.00384 L-228.14516 219.63235 L-230.65089 208.24689 L-239.96392 164.7364 L-239.01747 156.95802 L-241.08451 148.35187 L-188.81482 56.507576 L-196.12634 45.259338 Z "  fill="#828282" fill-rule="evenodd" stroke="#000000" fill-opacity="0" stroke-opacity="1"  stroke-width="1" stroke-linecap="round" stroke-linejoin="round" stroke-miterlimit="10" />
</g>
</g>
<g clip-path="url(#cp_2)">
<g transform="matrix(8.3333333 0 0 -8.3333333 2480.31 3507.867)">
<path d="M126.2859 206.76876 L126.39854 206.84839 L131.88114 198.62449 L134.58396 191.52961 L134.58606 191.39521 L134.69874 184.60305 L132.7104 174.47654 L132.13412 173.47434 L131.1719 172.95215 L122.25449 174.05633 L121.95981 171.66519 L121.15999 164.86704 L120.54635 163.08748 L119.47959 161.36338 L118.13362 160.37071 L116.65304 158.74912 L115.13574 154.74112 L114.74904 152.29692 L115.08466 148.15271 L116.77737 143.4832 L117.51427 138.95229 L117.42903 135.1675 L117.32327 134.49692 L116.7297 132.00759 L116.01718 130.14286 L115.01867 128.35297 L112.51942 125.28934 L109.85008 123.14541 L99.079771 120.3171 L97.027324 120.53096 L94.609866 121.08794 L92.400882 122.20561 L90.705059 123.60317 L89.449996 125.23355 L88.214312 127.37991 L85.71541 132.57388 L82.475532 137.03949 L79.185765 139.14183 L75.494819 140.25578 L73.058961 140.36764 L70.541943 140.29008 L68.007633 139.93522 L63.607808 138.74292 L59.302041 135.64958 L54.24543 130.88689 L47.561774 123.82203 L40.636104 115.40946 L36.689087 109.34702 L34.541976 105.20522 L31.814653 98.664934 L30.759896 95.668398 L30.739603 95.071861 L29.847593 91.812875 L29.757864 90.540727 L29.924451 89.105729 L30.194476 87.764146 L30.613281 86.613836 L37.532702 73.765753 L37.797135 73.970388 L38.188264 73.196364 L38.533832 71.808705 L38.652926 70.552689 L38.163035 67.837722 L37.500116 66.03243 L36.854952 65.220022 L35.987011 64.429737 L34.933556 63.588597 L33.267573 62.65457 L30.946699 61.748748 L29.848663 61.52485 L28.560267 61.404674 L16.020374 62.268891 L13.917883 63.064394 L11.523991 64.530573 L5.1203842 68.882763 L2.420905 70.44282 L-1.2426353 71.396496 L-3.5613708 71.782613 L-5.9099731 72.3063 L-8.2920371 73.183595 L-15.738314 77.078197 L-16.011805 77.488589 L-16.105026 77.894973 L-15.806127 78.548474 L-14.452058 79.981925 L-12.809616 81.891493 L-11.351554 84.03059 L-9.7131968 87.428421 L-8.8041406 90.343063 L-7.9790413 94.315218 L-6.5601494 93.956056 L-1.6452444 117.7363 L-0.87949216 121.44141 L1.7824023 134.32085 L2.4980587 134.20438 L7.3475479 127.31505 L8.8323581 125.20573 L9.4282252 124.35932 L10.214013 124.89884 L12.238977 126.40775 L23.12201 134.05937 L29.426688 125.1712 L76.087181 157.96452 L69.783741 166.80458 L83.457439 176.42327 L86.306754 178.5075 L126.2859 206.76876 Z "  fill="#828282" fill-rule="evenodd" stroke="#000000" fill-opacity="0" stroke-opacity="1"  stroke-width="1" stroke-linecap="round" stroke-linejoin="round" stroke-miterlimit="10" />
</g>
</g>
<g clip-path="url(#cp_2)">
<g transform="matrix(8.3333333 0 0 -8.3333333 2480.31 3507.867)">
<path d="M-85.152193 144.61694 L-69.781048 149.24644 L-76.68301 118.7626 L-85.152193 144.61694 Z "  fill="#828282" fill-rule="evenodd" stroke="#000000" fill-opacity="0" stroke-opacity="1"  stroke-width="1" stroke-linecap="round" stroke-linejoin="round" stroke-miterlimit="10" />
</g>
</g>
<g clip-path="url(#cp_2)">
<g transform="matrix(8.3333333 0 0 -8.3333333 2480.31 3507.867)">
<path d="M-60.450573 152.14892 L-47.392572 156.03042 L-44.822545 156.83967 L-19.152084 164.62203 L-15.490734 165.73207 L-0.045502414 170.41447 L-12.572563 161.54017 L-13.229632 159.77309 L-13.243535 156.27135 L-0.74297847 138.59459 L-20.025462 142.93103 L-22.386254 143.46194 L-22.915172 143.58086 L-60.450573 152.14892 Z "  fill="#828282" fill-rule="evenodd" stroke="#000000" fill-opacity="0" stroke-opacity="1"  stroke-width="1" stroke-linecap="round" stroke-linejoin="round" stroke-miterlimit="10" />
</g>
</g>
<g clip-path="url(#cp_2)">
<g transform="matrix(8.3333333 0 0 -8.3333333 2480.31 3507.867)">
<path d="M-25.330092 98.247946 L-10.25326 94.853001 L-10.906632 91.707981 L-11.725134 89.114105 L-13.685197 85.016246 L-15.733341 81.989984 L-19.593412 78.314255 L-22.440937 75.991925 L-23.151607 76.41368 L-25.330092 98.247946 Z "  fill="#828282" fill-rule="evenodd" stroke="#000000" fill-opacity="0" stroke-opacity="1"  stroke-width="1" stroke-linecap="round" stroke-linejoin="round" stroke-miterlimit="10" />
</g>
</g>
<g clip-path="url(#cp_2)">
<g transform="matrix(8.3333333 0 0 -8.3333333 2480.31 3507.867)">
<path d="M-220.76159 -183.66732 L-221.7889 -177.47731 L-225.13144 -157.33724 L-225.5692 -154.59891 L-227.02645 -145.75381 L-227.2169 -144.59785 L-227.69605 -141.69075 L-228.02258 -139.70739 L-228.11973 -139.1174 L-228.20104 -138.62404 L-228.20376 -138.60756 L-228.30115 -138.01627 L-231.64255 -117.7428 L-231.72797 -117.22394 L-239.98631 -67.097958 L-240.49075 -64.036032 L-240.92264 -61.250869 L-241.02585 -60.276912 L-241.23033 -57.999923 L-241.33083 -56.461873 L-241.34075 -56.310091 L-241.35299 -55.704509 L-241.36176 -55.590093 L-241.38353 -55.268877 L-241.42552 -53.822308 L-241.41999 -51.723 L-241.38906 -50.929687 L-241.37735 -50.629615 L-241.34256 -49.738494 L-241.33792 -49.620083 L-241.26538 -48.59549 L-241.02362 -45.992814 L-241.01942 -45.971373 L-240.89752 -45.067535 L-241.33831 -45.063799 L-243.60615 -45.028108 L-244.82388 -45.009026 L-244.71087 -43.839222 L-245.46477 -44.052721 L-247.74587 -44.139706 L-247.92422 -43.050741 L-248.25083 -41.043635 L-248.62276 -38.954196 L-251.10758 -23.859957 L-253.26233 -10.770788 L-253.87047 -7.0767754 L-254.16584 -5.2825256 L-255.68785 3.9631166 L-257.16989 12.937252 L-256.84958 13.161794 L-255.91673 13.542783 L-254.87152 13.688122 L-253.93467 13.591371 L-253.09936 13.310471 L-247.18939 10.515129 L-243.48954 9.260814 L-234.19579 4.8714899 L-233.03449 4.1526638 L-230.7718 3.0427606 L-229.48796 2.6402417 L-228.80443 2.3164485 L-228.4379 2.1512276 L-226.57944 1.0844624 L-224.3049 -0.12761678 L-222.61847 -0.98936023 L-222.62095 -1.0336966 L-221.38978 -1.6046317 L-221.39038 -1.6051729 L-220.16226 -2.1709155 L-218.83758 -2.782051 L-217.71413 -3.3005968 L-217.74083 -3.3198337 L-217.5897 -3.5277546 L-217.4461 -3.4242644 L-215.98815 -4.096873 L-215.24836 -4.4379704 L-213.2983 -5.337582 L-209.35183 -7.1585548 L-205.84765 -8.6156499 L-205.8198 -8.5491776 L-198.69707 -11.461848 L-175.33141 -22.504613 L-168.69031 -26.800587 L-163.73346 -31.739329 L-160.82484 -36.736039 L-159.56252 -41.696698 L-159.13342 -45.715122 L-157.777 -62.447602 L-155.78452 -85.772901 L-153.91866 -107.8148 L-153.80494 -109.02398 L-152.74771 -121.52168 L-152.82465 -122.87219 L-151.95837 -130.80138 L-151.93672 -131.05951 L-148.77373 -168.26254 L-148.59372 -170.64738 L-147.25725 -186.28524 L-146.35278 -196.86816 L-145.30869 -210.68718 L-145.35361 -212.79504 L-145.53057 -215.31603 L-145.90257 -219.02939 L-146.16359 -220.97947 L-146.45428 -222.64772 L-146.64258 -223.28222 L-147.16962 -224.74117 L-147.5463 -225.63452 L-148.06263 -226.74874 L-148.632 -228.00379 L-149.086 -229.13352 L-149.59847 -230.33244 L-150.39029 -231.73931 L-151.38213 -233.21362 L-151.55215 -233.4663 L-151.72857 -233.72848 L-151.99052 -234.11791 L-193.81335 -296.28483 L-195.34092 -297.96386 L-195.99283 -298.49806 L-196.83392 -299.23093 L-198.2445 -300.91432 L-199.78918 -303.36654 L-200.49103 -305.80543 L-200.62664 -304.98829 L-210.55801 -245.14798 L-211.65166 -238.55825 L-220.76159 -183.66732 Z "  fill="#828282" fill-rule="evenodd" stroke="#000000" fill-opacity="0" stroke-opacity="1"  stroke-width="1" stroke-linecap="round" stroke-linejoin="round" stroke-miterlimit="10" />
</g>
</g>
<g clip-path="url(#cp_2)">
<g transform="matrix(8.3333333 0 0 -8.3333333 2480.31 3507.867)">
<path d="M-200.49103 -305.80543 L-199.78918 -303.36654 L-198.2445 -300.91432 L-196.83392 -299.23093 L-195.99283 -298.49806 L-195.34092 -297.96386 L-193.81335 -296.28483 L-151.99052 -234.11791 L-151.72857 -233.72848 L-151.37577 -233.2041 L-137.88659 -232.00631 L-71.750839 -226.17911 L-67.83164 -225.84629 L-1.1419927 -219.88083 L-0.73736073 -219.84463 L0.82112434 -227.89309 L4.7156749 -273.04267 L4.8139725 -274.39317 L4.8677018 -275.79766 L4.9213151 -277.34237 L4.9343545 -278.81936 L4.9061756 -280.34164 L4.861414 -281.81574 L4.7489433 -283.70467 L4.6144396 -285.21391 L4.4069311 -286.77476 L4.1948356 -288.33732 L3.9722777 -289.9086 L3.6937227 -291.457 L3.5227553 -292.4249 L2.8808382 -293.0124 L2.7408199 -293.02468 L-14.861547 -294.56474 L-61.532774 -298.64666 L-65.457462 -299.01198 L-129.68126 -304.64185 L-139.69251 -305.51265 L-196.34205 -310.49096 L-198.59257 -310.68865 L-199.66531 -310.78288 L-200.49103 -305.80543 Z "  fill="#828282" fill-rule="evenodd" stroke="#000000" fill-opacity="0" stroke-opacity="1"  stroke-width="1" stroke-linecap="round" stroke-linejoin="round" stroke-miterlimit="10" />
</g>
</g>
<g clip-path="url(#cp_2)">
<g transform="matrix(8.3333333 0 0 -8.3333333 2480.31 3507.867)">
<path d="M-216.93208 115.22529 L-221.95649 123.51809 L-226.67942 134.10271 L-229.76566 144.33589 L-231.31172 152.60652 L-231.94985 160.34594 L-231.43785 166.60614 L-230.08123 174.14767 L-228.11731 183.34944 L-227.35589 186.91713 L-227.19962 187.59486 L-224.34792 200.72514 L-215.2364 235.39895 L-205.36666 246.37831 L-200.46792 251.48226 L-199.99975 252.3173 L-199.38889 253.15397 L-175.78898 279.5856 L-172.50287 283.15287 L-166.27607 289.6542 L-164.22901 291.64129 L-162.40076 293.22128 L-160.26825 294.78433 L-158.37478 295.9598 L-156.86929 296.49968 L-155.39154 296.28857 L-152.9542 293.9088 L-150.47123 290.87459 L-149.31579 288.78731 L-149.10082 288.37199 L-148.05658 285.86441 L-136.08361 251.67414 L-190.2371 235.25418 L-189.38558 232.66051 L-188.49533 229.88069 L-183.9889 215.72872 L-203.52394 209.74452 L-197.66931 191.51545 L-213.66862 186.64004 L-201.46944 148.91947 L-204.14141 148.10267 L-208.83113 146.66902 L-210.88228 146.04201 L-212.96264 145.40597 L-217.3948 144.05122 L-208.9641 117.89449 L-141.62028 138.35317 L-137.91522 126.73891 L-114.00486 133.89411 L-103.72727 102.28745 L-90.168552 106.43257 L-90.148838 106.4386 L-89.463165 104.25009 L-88.906738 102.07521 L-88.515776 99.617013 L-88.389081 97.672488 L-88.522876 94.666069 L-88.8406 92.529704 L-89.425838 90.046521 L-90.046766 88.268686 L-90.677885 86.513155 L-91.360943 84.608483 L-91.952752 82.992197 L-92.671462 81.096467 L-93.315067 79.1505 L-93.904788 77.421511 L-94.403027 75.636267 L-94.780241 73.924119 L-95.094808 72.300231 L-95.363287 70.46122 L-95.571956 68.178742 L-95.640464 66.156432 L-95.629383 64.190674 L-94.38888 41.165293 L-99.076112 39.983634 L-102.46385 39.48622 L-105.6892 39.16731 L-108.81997 39.097809 L-112.34064 39.972386 L-116.52184 41.758016 L-128.04885 47.72751 L-132.86023 50.402483 L-135.12593 47.430749 L-137.81109 45.942202 L-140.44437 46.642745 L-141.9826 46.779323 L-152.87106 45.509726 L-155.33774 43.353287 L-167.08403 32.471967 L-168.39761 33.966389 L-193.1875 69.486619 L-199.00015 78.045454 L-204.58123 88.787103 L-214.96603 108.77393 L-214.19664 111.55869 L-216.93208 115.22529 Z "  fill="#828282" fill-rule="evenodd" stroke="#000000" fill-opacity="0" stroke-opacity="1"  stroke-width="1" stroke-linecap="round" stroke-linejoin="round" stroke-miterlimit="10" />
</g>
</g>
<g clip-path="url(#cp_2)">
<g transform="matrix(8.3333333 0 0 -8.3333333 2480.31 3507.867)">
<path d="M-214.56771 9.8039439 L-186.5536 56.810109 L-185.53415 58.520673 L-168.39761 33.966389 L-167.08403 32.471967 L-155.33774 43.353287 L-152.87106 45.509726 L-141.9826 46.779323 L-140.44437 46.642745 L-137.81109 45.942202 L-135.12593 47.430749 L-134.2069 48.636167 L-128.72869 45.580683 L-116.85264 39.430454 L-112.84212 37.717701 L-109.11883 36.792809 L-106.1817 36.911593 L-97.230774 38.527415 L-95.972336 38.617261 L-90.120324 38.9874 L-90.141236 39.317932 L-90.234213 41.846083 L-91.336127 64.354941 L-91.370091 66.172087 L-91.289356 68.055886 L-91.099306 70.122236 L-90.85161 71.699661 L-90.552646 73.291131 L-90.234328 74.705642 L-89.806298 76.286418 L-89.304425 77.884755 L-88.62616 79.70578 L-87.934108 81.642895 L-87.342854 83.291342 L-86.671405 85.128137 L-86.073824 86.77666 L-85.404128 88.706934 L-84.698032 91.62432 L-84.240096 94.188741 L-84.098158 97.620782 L-84.256704 99.8933 L-84.690095 102.89237 L-85.409552 105.51214 L-86.046998 107.70482 L-78.080371 110.1618 L-30.641408 99.434565 L-28.541945 77.869358 L-28.223409 75.313054 L-27.608575 70.360848 L-26.874326 65.124469 L-26.530046 62.056718 L-25.834039 56.822414 L-24.7694 49.36427 L-19.424068 49.019049 L-10.441274 50.474573 L-7.8360724 50.720194 L-8.9730594 59.35644 L-7.4424182 59.383125 L-5.9957597 59.432138 L-4.2386823 59.352794 L-2.7206681 59.320479 L-1.4257531 59.257138 L-0.20318571 59.067655 L1.0235692 58.755368 L2.5210966 58.49663 L4.2908654 58.281661 L5.8491959 58.138846 L7.231856 57.857328 L8.2351897 57.573993 L9.8859938 56.918508 L10.854771 56.451205 L12.078163 55.542329 L13.858123 53.773037 L16.209406 51.7071 L19.079376 49.427714 L20.829714 48.301319 L22.334161 47.309079 L23.560374 46.623405 L24.645346 45.980161 L26.025017 45.185199 L27.275621 44.707446 L28.26071 44.304811 L29.569889 44.035881 L30.923687 43.876665 L32.411267 43.982435 L33.750751 44.07737 L34.737592 44.284157 L35.86708 44.635717 L36.83681 45.070911 L37.617573 45.472902 L38.425085 45.989889 L39.305975 46.58591 L40.095976 47.295485 L40.967834 48.071519 L41.734952 48.84919 L42.374254 49.549604 L43.0226 50.418911 L43.61419 51.341199 L44.349921 52.595734 L45.123468 54.184562 L45.799646 55.557933 L46.328628 56.839125 L46.824664 58.208115 L47.202651 59.740263 L47.563861 61.530815 L47.879344 63.506121 L48.038006 65.246036 L48.145671 66.358452 L48.149807 67.117929 L48.14339 68.321866 L47.961007 69.397225 L47.687941 70.56623 L47.474609 71.309086 L47.082243 72.199228 L46.701899 73.278465 L46.275388 74.412296 L45.800226 75.560789 L45.24595 76.867468 L45.00882 77.619691 L44.57253 78.570365 L44.372301 79.017387 L43.793532 79.964557 L43.069617 81.168557 L42.438935 81.928588 L41.732131 82.911307 L41.285494 83.758645 L40.975333 84.506294 L40.323405 85.807858 L39.820643 87.324648 L39.596732 88.458993 L39.582868 89.185138 L39.546224 90.17542 L39.702747 91.165894 L39.988415 92.122328 L40.600104 93.428298 L40.964858 93.314822 L41.859148 92.942891 L42.38058 92.540115 L43.162425 91.526692 L43.758898 89.952643 L56.495773 56.340203 L57.625004 53.39058 L57.677818 53.252597 L57.679042 53.249402 L57.687211 53.252674 L57.943862 53.355714 L60.303055 54.30296 L60.322937 54.252967 L60.766403 54.438649 L76.266279 61.162145 L85.394503 60.953953 L85.228354 52.403996 L86.375726 39.36634 L89.892394 36.682258 L90.973049 35.538816 L94.736896 32.414888 L100.64199 27.780587 L101.11801 26.132785 L111.12105 16.414492 L112.13214 5.0744115 L112.03454 4.8204277 L112.06356 4.4949982 L112.20654 4.2281941 L112.65848 -0.83641851 L83.231866 -3.3794643 L76.546509 -2.6916131 L65.44477 -3.6021123 L62.284701 -3.8617138 L42.230821 -5.5067843 L40.302622 -5.1407936 L34.93277 -5.5976216 L24.428135 -6.4913192 L13.776215 -7.3973474 L10.823719 -7.6685967 L5.0340178 -8.1757396 L-13.824172 -9.8286568 L-18.87474 -12.107707 L-27.988237 -12.885971 L-33.25532 -13.298527 L-33.607601 -13.327904 L-33.598685 -13.402107 L-35.798172 -13.587879 L-85.729377 -17.828887 L-89.642056 -18.168297 L-101.91066 -19.167417 L-116.72141 -20.373595 L-117.65863 -20.451689 L-118.1198 -20.195889 L-119.64712 -20.331307 L-120.3808 -20.678551 L-136.30157 -22.005446 L-141.9542 -22.093062 L-144.4758 -22.232552 L-145.8222 -22.003217 L-150.9587 -22.427021 L-152.76073 -22.811012 L-164.30636 -20.158781 L-166.18509 -19.419107 L-169.42527 -18.568045 L-170.07534 -18.320027 L-170.26307 -18.104208 L-170.84921 -17.869577 L-171.54389 -17.729481 L-172.7251 -17.283154 L-179.47019 -14.544261 L-182.3534 -13.107807 L-190.20695 -8.9407831 L-193.45838 -7.6676561 L-197.24806 -6.677001 L-200.94926 -5.2451083 L-202.0696 -4.5336652 L-204.54095 -3.7171472 L-206.7395 -3.2778939 L-208.58747 -2.4235206 L-210.09006 -1.7290466 L-210.75032 -1.4238977 L-210.75443 -1.4220036 L-211.51015 -1.0732785 L-212.95852 -0.4044838 L-213.23462 -0.27698942 L-214.36618 0.24553781 L-215.60278 0.81917875 L-217.20364 1.5541494 L-218.85352 2.3122867 L-219.55001 2.914725 L-219.80773 3.4848356 L-219.29508 4.7414701 L-218.12004 6.8621545 L-216.55543 8.5088226 L-214.56771 9.8039439 Z "  fill="#828282" fill-rule="evenodd" stroke="#000000" fill-opacity="0" stroke-opacity="1"  stroke-width="1" stroke-linecap="round" stroke-linejoin="round" stroke-miterlimit="10" />
</g>
</g>
<g clip-path="url(#cp_2)">
<g transform="matrix(8.3333333 0 0 -8.3333333 2480.31 3507.867)">
<path d="M111.12105 16.414492 L101.11801 26.132785 L100.64199 27.780587 L94.736896 32.414888 L90.973049 35.538816 L89.892394 36.682258 L86.375726 39.36634 L85.228354 52.403996 L85.394503 60.953953 L76.266279 61.162145 L60.766403 54.438649 L60.32295 54.252967 L60.303055 54.30296 L50.495948 78.961352 L45.194283 92.291491 L44.383859 93.39749 L43.327234 94.231557 L42.103365 94.635365 L40.450448 95.16771 L39.166768 95.588899 L39.38684 97.076067 L39.516331 97.817158 L39.724149 98.731639 L39.874076 99.45451 L40.145479 100.52215 L40.445964 101.59625 L40.932981 102.80926 L41.242562 103.60319 L41.888654 105.01012 L42.44771 106.2133 L42.640401 106.62548 L43.056204 107.5121 L43.483487 108.266 L44.060233 109.02343 L44.643151 109.91834 L45.433436 111.00839 L45.944174 111.67287 L46.442529 112.30962 L46.916906 112.8645 L47.488009 113.51744 L48.000976 114.13177 L48.77902 114.9483 L49.443923 115.61504 L50.221272 116.30864 L51.017174 116.92254 L51.701572 117.46088 L52.398829 118.11112 L53.306687 119.01239 L54.068136 119.6813 L55.153455 120.70117 L56.151326 121.68462 L57.078459 122.51773 L57.808495 123.22308 L58.850187 124.14754 L59.855775 125.0053 L60.779314 125.79543 L61.498462 126.6091 L62.427335 127.4237 L63.311188 128.24282 L63.901489 129.0792 L64.687677 129.8488 L65.592429 130.58549 L66.406602 131.07404 L67.398043 131.63117 L68.376999 132.17377 L69.445156 132.48393 L70.626402 132.35203 L71.650583 131.93741 L72.56049 131.1311 L73.550127 130.09081 L74.49995 128.89511 L75.785035 127.08385 L76.562937 125.98126 L77.82537 124.3239 L78.472196 123.5329 L79.401533 122.5526 L80.355196 121.73588 L81.332219 120.97842 L82.343928 120.15029 L83.329493 119.48029 L84.131877 118.98314 L85.172409 118.2787 L86.966813 117.13608 L88.135703 116.38173 L89.482466 115.43289 L90.97127 114.49449 L91.949569 113.92022 L92.8917 113.2078 L94.140372 112.23858 L95.26173 111.54663 L96.410532 111.0951 L97.566666 110.7794 L99.340919 110.67311 L100.88463 110.70868 L101.96493 110.73472 L103.73971 110.81973 L105.22791 110.9511 L106.77383 111.2251 L107.81336 111.51605 L109.12384 111.92037 L110.11347 112.32193 L111.08402 112.7184 L111.94266 113.12356 L112.74328 113.55108 L113.70774 114.23824 L114.44806 115.00054 L115.14074 115.80492 L115.92516 116.73812 L116.65868 117.74531 L117.33645 118.51656 L117.94592 119.1403 L118.61012 119.83981 L119.61094 120.84617 L120.62793 121.64926 L121.56523 122.37272 L122.32499 123.02173 L123.08693 123.75181 L123.73078 124.56271 L123.92904 124.93205 L124.5314 126.04014 L124.97917 127.19182 L125.4084 128.52686 L126.00997 129.8812 L126.67888 131.36788 L127.14063 132.58447 L127.41519 133.60164 L127.44439 134.72389 L127.43035 135.86291 L127.12847 136.96254 L126.72295 137.96255 L126.31145 139.18177 L125.9748 140.13934 L125.46893 141.34151 L125.01494 142.69063 L124.58635 144.00026 L124.16144 145.19699 L123.89695 146.16475 L123.6179 147.34182 L123.51201 148.16246 L123.54764 149.058 L123.65817 150.07947 L123.86321 151.07677 L124.07826 151.83129 L124.41755 152.47015 L124.94519 153.35361 L125.58029 154.18857 L126.27366 155.22679 L127.59237 156.64799 L128.21159 157.27992 L129.03277 158.01609 L129.88092 158.66271 L130.92343 159.0594 L132.42654 159.40615 L134.05048 159.5864 L135.37741 159.81875 L135.60461 158.61838 L143.46507 119.72724 L143.65648 119.75645 L153.7516 70.775878 L153.51095 70.723927 L154.01539 68.413231 L154.40023 68.41854 L161.45057 36.066845 L162.36105 31.888998 L165.13857 19.150435 L165.08967 18.331108 L164.75006 17.740124 L150.79471 8.7860762 L142.19074 3.2623163 L140.47827 2.3957797 L138.59639 1.6568149 L136.65376 1.2362574 L133.06396 0.92617352 L119.13134 -0.27729866 L112.65848 -0.83641851 L112.20654 4.2281941 L112.06356 4.4949982 L112.03454 4.8204277 L112.13214 5.0744115 L111.12105 16.414492 Z "  fill="#828282" fill-rule="evenodd" stroke="#000000" fill-opacity="0" stroke-opacity="1"  stroke-width="1" stroke-linecap="round" stroke-linejoin="round" stroke-miterlimit="10" />
</g>
</g>
</g>
<!-- Begin_Label-->
<clipPath id="cp_3">
<path d="M4960.62 7015.734 L4960.62 0 L0 9.094947e-13 L0 7015.734 Z " />
</clipPath>
<g clip-path="url(#cp_3)">
<g id="EmbdFile__1" transform="matrix(1 0 0 1 -6.7137762e-13 9.094947e-13)">
<g>
<g color-interpolation="linearRGB" transform="scale(1,1)">
</g>
</g>
</g>
</g>
<!-- End_Label-->
</g>
</g>
</svg>
