<?xml version="1.0" encoding="utf-8" standalone="no"?>
<!DOCTYPE svg PUBLIC "-//W3C//DTD SVG 1.1//EN" "http://www.w3.org/Graphics/SVG/1.1/DTD/svg11.dtd">
<svg version="1.1" xmlns="http://www.w3.org/2000/svg" xmlns:xlink="http://www.w3.org/1999/xlink" width="595pt" height="842pt" viewBox="0 0 595 842" xml:space="preserve" enable-background="new 0 0 595 842">
<g color-interpolation="linearRGB" transform="scale(0.12,0.12)">
<g>
	<rect x="0" y="0" width="4960.62" height="7015.734" fill="#FFFFFF" fill-opacity="1" />
</g>
<g id="Map_Frame">
<g id="Botanic_Park_Lands_Precinct">
<clipPath id="cp_2">
<path d="M4960.62 7015.734 L4960.62 0 L0 9.094947e-13 L0 7015.734 Z " />
</clipPath>
<g clip-path="url(#cp_2)">
<g transform="matrix(8.3333333 0 0 -8.3333333 2480.31 3507.867)">
<path d="M111.12105 16.414492 L101.11801 26.132785 L100.64199 27.780587 L94.736896 32.414888 L90.973049 35.538816 L89.892394 36.682258 L86.375726 39.36634 L85.228354 52.403996 L85.394503 60.953953 L76.266279 61.162145 L60.766403 54.438649 L60.32295 54.252967 L60.303055 54.30296 L50.495948 78.961352 L45.194283 92.291491 L44.383859 93.39749 L43.327234 94.231557 L42.103365 94.635365 L40.450448 95.16771 L39.166768 95.588899 L39.38684 97.076067 L39.516331 97.817158 L39.724149 98.731639 L39.874076 99.45451 L40.145479 100.52215 L40.445964 101.59625 L40.932981 102.80926 L41.242562 103.60319 L41.888654 105.01012 L42.44771 106.2133 L42.640401 106.62548 L43.056204 107.5121 L43.483487 108.266 L44.060233 109.02343 L44.643151 109.91834 L45.433436 111.00839 L45.944174 111.67287 L46.442529 112.30962 L46.916906 112.8645 L47.488009 113.51744 L48.000976 114.13177 L48.77902 114.9483 L49.443923 115.61504 L50.221272 116.30864 L51.017174 116.92254 L51.701572 117.46088 L52.398829 118.11112 L53.306687 119.01239 L54.068136 119.6813 L55.153455 120.70117 L56.151326 121.68462 L57.078459 122.51773 L57.808495 123.22308 L58.850187 124.14754 L59.855775 125.0053 L60.779314 125.79543 L61.498462 126.6091 L62.427335 127.4237 L63.311188 128.24282 L63.901489 129.0792 L64.687677 129.8488 L65.592429 130.58549 L66.406602 131.07404 L67.398043 131.63117 L68.376999 132.17377 L69.445156 132.48393 L70.626402 132.35203 L71.650583 131.93741 L72.56049 131.1311 L73.550127 130.09081 L74.49995 128.89511 L75.785035 127.08385 L76.562937 125.98126 L77.82537 124.3239 L78.472196 123.5329 L79.401533 122.5526 L80.355196 121.73588 L81.332219 120.97842 L82.343928 120.15029 L83.329493 119.48029 L84.131877 118.98314 L85.172409 118.2787 L86.966813 117.13608 L88.135703 116.38173 L89.482466 115.43289 L90.97127 114.49449 L91.949569 113.92022 L92.8917 113.2078 L94.140372 112.23858 L95.26173 111.54663 L96.410532 111.0951 L97.566666 110.7794 L99.340919 110.67311 L100.88463 110.70868 L101.96493 110.73472 L103.73971 110.81973 L105.22791 110.9511 L106.77383 111.2251 L107.81336 111.51605 L109.12384 111.92037 L110.11347 112.32193 L111.08402 112.7184 L111.94266 113.12356 L112.74328 113.55108 L113.70774 114.23824 L114.44806 115.00054 L115.14074 115.80492 L115.92516 116.73812 L116.65868 117.74531 L117.33645 118.51656 L117.94592 119.1403 L118.61012 119.83981 L119.61094 120.84617 L120.62793 121.64926 L121.56523 122.37272 L122.32499 123.02173 L123.08693 123.75181 L123.73078 124.56271 L123.92904 124.93205 L124.5314 126.04014 L124.97917 127.19182 L125.4084 128.52686 L126.00997 129.8812 L126.67888 131.36788 L127.14063 132.58447 L127.41519 133.60164 L127.44439 134.72389 L127.43035 135.86291 L127.12847 136.96254 L126.72295 137.96255 L126.31145 139.18177 L125.9748 140.13934 L125.46893 141.34151 L125.01494 142.69063 L124.58635 144.00026 L124.16144 145.19699 L123.89695 146.16475 L123.6179 147.34182 L123.51201 148.16246 L123.54764 149.058 L123.65817 150.07947 L123.86321 151.07677 L124.07826 151.83129 L124.41755 152.47015 L124.94519 153.35361 L125.58029 154.18857 L126.27366 155.22679 L127.59237 156.64799 L128.21159 157.27992 L129.03277 158.01609 L129.88092 158.66271 L130.92343 159.0594 L132.42654 159.40615 L134.05048 159.5864 L135.37741 159.81875 L135.60461 158.61838 L143.46507 119.72724 L143.65648 119.75645 L153.7516 70.775878 L153.51095 70.723927 L154.01539 68.413231 L154.40023 68.41854 L161.45057 36.066845 L162.36105 31.888998 L165.13857 19.150435 L165.08967 18.331108 L164.75006 17.740124 L150.79471 8.7860762 L142.19074 3.2623163 L140.47827 2.3957797 L138.59639 1.6568149 L136.65376 1.2362574 L133.06396 0.92617352 L119.13134 -0.27729866 L112.65848 -0.83641851 L112.20654 4.2281941 L112.06356 4.4949982 L112.03454 4.8204277 L112.13214 5.0744115 L111.12105 16.414492 Z "  fill="#828282" fill-rule="evenodd" stroke="#000000" fill-opacity="0" stroke-opacity="1"  stroke-width="1" stroke-linecap="round" stroke-linejoin="round" stroke-miterlimit="10" />
</g>
</g>
</g>
<!-- Begin_Label-->
<clipPath id="cp_3">
<path d="M4960.62 7015.734 L4960.62 0 L0 9.094947e-13 L0 7015.734 Z " />
</clipPath>
<g clip-path="url(#cp_3)">
<g id="EmbdFile__1" transform="matrix(1 0 0 1 -6.7137762e-13 9.094947e-13)">
<g>
<g color-interpolation="linearRGB" transform="scale(1,1)">
</g>
</g>
</g>
</g>
<!-- End_Label-->
</g>
</g>
</svg>
