<?xml version="1.0" encoding="utf-8" standalone="no"?>
<!DOCTYPE svg PUBLIC "-//W3C//DTD SVG 1.1//EN" "http://www.w3.org/Graphics/SVG/1.1/DTD/svg11.dtd">
<svg version="1.1" xmlns="http://www.w3.org/2000/svg" xmlns:xlink="http://www.w3.org/1999/xlink" width="595pt" height="842pt" viewBox="0 0 595 842" xml:space="preserve" enable-background="new 0 0 595 842">
<g color-interpolation="linearRGB" transform="scale(0.12,0.12)">
<g>
	<rect x="0" y="0" width="4960.62" height="7015.734" fill="#FFFFFF" fill-opacity="1" />
</g>
<g id="Map_Frame">
<g id="East_Park_Lands_Precinct">
<clipPath id="cp_2">
<path d="M4960.62 7015.734 L4960.62 0 L0 9.094947e-13 L0 7015.734 Z " />
</clipPath>
<g clip-path="url(#cp_2)">
<g transform="matrix(8.3333333 0 0 -8.3333333 2480.31 3507.867)">
<path d="M158.76826 -98.649975 L156.91528 -76.860768 L148.71097 -77.586526 L147.42716 -62.335235 L147.15463 -59.697641 L146.90914 -57.130462 L146.23524 -57.189745 L133.59566 -58.301825 L133.22823 -57.913763 L132.8405 -57.266589 L132.57538 -56.420591 L132.41364 -55.66936 L131.86309 -49.678915 L131.77298 -49.110428 L131.59756 -48.375354 L131.36001 -47.502968 L131.09693 -46.794102 L130.61634 -45.951814 L130.15498 -45.327884 L129.50745 -44.555741 L129.49425 -44.539996 L128.85636 -43.967386 L128.14073 -43.351045 L127.36405 -42.790289 L126.61888 -42.361988 L125.95037 -42.037589 L125.044 -41.617237 L124.77648 -41.406624 L124.43048 -41.134228 L123.98031 -40.578754 L123.68291 -39.960906 L123.60685 -39.459716 L122.38319 -25.295793 L121.99665 -21.559209 L120.47625 -4.3221367 L138.21401 -1.0128233 L140.83651 -0.34389981 L142.48918 0.24754782 L143.78847 0.8376941 L151.8391 6.0769334 L165.88426 15.218042 L166.73669 10.696508 L169.25224 -2.6466325 L171.30595 -13.360026 L173.33028 -25.763805 L206.31964 -53.018997 L206.87278 -53.346256 L210.75482 -56.5356 L217.24718 -62.740215 L219.0276 -63.660996 L222.5582 -66.261224 L255.83949 -93.685954 L255.95553 -94.579084 L254.56011 -94.842835 L239.8709 -93.286875 L175.49427 -98.665888 L175.35685 -97.189298 L158.76826 -98.649975 Z "  fill="#828282" fill-rule="evenodd" stroke="#000000" fill-opacity="0" stroke-opacity="1"  stroke-width="1" stroke-linecap="round" stroke-linejoin="round" stroke-miterlimit="10" />
</g>
</g>
</g>
<!-- Begin_Label-->
<clipPath id="cp_3">
<path d="M4960.62 7015.734 L4960.62 0 L0 9.094947e-13 L0 7015.734 Z " />
</clipPath>
<g clip-path="url(#cp_3)">
<g id="EmbdFile__1" transform="matrix(1 0 0 1 -6.7137762e-13 9.094947e-13)">
<g>
<g color-interpolation="linearRGB" transform="scale(1,1)">
</g>
</g>
</g>
</g>
<!-- End_Label-->
</g>
</g>
</svg>
