<?xml version="1.0" encoding="utf-8" standalone="no"?>
<!DOCTYPE svg PUBLIC "-//W3C//DTD SVG 1.1//EN" "http://www.w3.org/Graphics/SVG/1.1/DTD/svg11.dtd">
<svg version="1.1" xmlns="http://www.w3.org/2000/svg" xmlns:xlink="http://www.w3.org/1999/xlink" width="595pt" height="842pt" viewBox="0 0 595 842" xml:space="preserve" enable-background="new 0 0 595 842">
<g color-interpolation="linearRGB" transform="scale(0.12,0.12)">
<g>
	<rect x="0" y="0" width="4960.62" height="7015.734" fill="#FFFFFF" fill-opacity="1" />
</g>
<g id="Map_Frame">
<g id="Golf_Links_Precinct">
<clipPath id="cp_2">
<path d="M4960.62 7015.734 L4960.62 0 L0 9.094947e-13 L0 7015.734 Z " />
</clipPath>
<g clip-path="url(#cp_2)">
<g transform="matrix(8.3333333 0 0 -8.3333333 2480.31 3507.867)">
<path d="M-216.93208 115.22529 L-221.95649 123.51809 L-226.67942 134.10271 L-229.76566 144.33589 L-231.31172 152.60652 L-231.94985 160.34594 L-231.43785 166.60614 L-230.08123 174.14767 L-228.11731 183.34944 L-227.35589 186.91713 L-227.19962 187.59486 L-224.34792 200.72514 L-215.2364 235.39895 L-205.36666 246.37831 L-200.46792 251.48226 L-199.99975 252.3173 L-199.38889 253.15397 L-175.78898 279.5856 L-172.50287 283.15287 L-166.27607 289.6542 L-164.22901 291.64129 L-162.40076 293.22128 L-160.26825 294.78433 L-158.37478 295.9598 L-156.86929 296.49968 L-155.39154 296.28857 L-152.9542 293.9088 L-150.47123 290.87459 L-149.31579 288.78731 L-149.10082 288.37199 L-148.05658 285.86441 L-136.08361 251.67414 L-190.2371 235.25418 L-189.38558 232.66051 L-188.49533 229.88069 L-183.9889 215.72872 L-203.52394 209.74452 L-197.66931 191.51545 L-213.66862 186.64004 L-201.46944 148.91947 L-204.14141 148.10267 L-208.83113 146.66902 L-210.88228 146.04201 L-212.96264 145.40597 L-217.3948 144.05122 L-208.9641 117.89449 L-141.62028 138.35317 L-137.91522 126.73891 L-114.00486 133.89411 L-103.72727 102.28745 L-90.168552 106.43257 L-90.148838 106.4386 L-89.463165 104.25009 L-88.906738 102.07521 L-88.515776 99.617013 L-88.389081 97.672488 L-88.522876 94.666069 L-88.8406 92.529704 L-89.425838 90.046521 L-90.046766 88.268686 L-90.677885 86.513155 L-91.360943 84.608483 L-91.952752 82.992197 L-92.671462 81.096467 L-93.315067 79.1505 L-93.904788 77.421511 L-94.403027 75.636267 L-94.780241 73.924119 L-95.094808 72.300231 L-95.363287 70.46122 L-95.571956 68.178742 L-95.640464 66.156432 L-95.629383 64.190674 L-94.38888 41.165293 L-99.076112 39.983634 L-102.46385 39.48622 L-105.6892 39.16731 L-108.81997 39.097809 L-112.34064 39.972386 L-116.52184 41.758016 L-128.04885 47.72751 L-132.86023 50.402483 L-135.12593 47.430749 L-137.81109 45.942202 L-140.44437 46.642745 L-141.9826 46.779323 L-152.87106 45.509726 L-155.33774 43.353287 L-167.08403 32.471967 L-168.39761 33.966389 L-193.1875 69.486619 L-199.00015 78.045454 L-204.58123 88.787103 L-214.96603 108.77393 L-214.19664 111.55869 L-216.93208 115.22529 Z "  fill="#828282" fill-rule="evenodd" stroke="#000000" fill-opacity="0" stroke-opacity="1"  stroke-width="1" stroke-linecap="round" stroke-linejoin="round" stroke-miterlimit="10" />
</g>
</g>
</g>
<!-- Begin_Label-->
<clipPath id="cp_3">
<path d="M4960.62 7015.734 L4960.62 0 L0 9.094947e-13 L0 7015.734 Z " />
</clipPath>
<g clip-path="url(#cp_3)">
<g id="EmbdFile__1" transform="matrix(1 0 0 1 -6.7137762e-13 9.094947e-13)">
<g>
<g color-interpolation="linearRGB" transform="scale(1,1)">
</g>
</g>
</g>
</g>
<!-- End_Label-->
</g>
</g>
</svg>
