<?xml version="1.0" encoding="UTF-8" standalone="no"?>
<svg
   width="27.791891in"
   height="4.8443613in"
   viewBox="0 0 2001.0146 348.79417"
   version="1.1"
   id="svg1"
   sodipodi:docname="Kadaltilla Logo.svg"
   inkscape:version="1.3.2 (091e20e, 2023-11-25, custom)"
   xmlns:inkscape="http://www.inkscape.org/namespaces/inkscape"
   xmlns:sodipodi="http://sodipodi.sourceforge.net/DTD/sodipodi-0.dtd"
   xmlns="http://www.w3.org/2000/svg"
   xmlns:svg="http://www.w3.org/2000/svg">
  <defs
     id="defs1" />
  <sodipodi:namedview
     id="namedview1"
     pagecolor="#ffffff"
     bordercolor="#000000"
     borderopacity="0.25"
     inkscape:showpageshadow="2"
     inkscape:pageopacity="0.0"
     inkscape:pagecheckerboard="0"
     inkscape:deskcolor="#d1d1d1"
     inkscape:document-units="in"
     inkscape:zoom="0.74774941"
     inkscape:cx="1333.3344"
     inkscape:cy="352.39078"
     inkscape:window-width="2560"
     inkscape:window-height="1361"
     inkscape:window-x="-9"
     inkscape:window-y="-9"
     inkscape:window-maximized="1"
     inkscape:current-layer="svg1" />
  <path
     id="Selection"
     fill="none"
     stroke="#000000"
     stroke-width="1"
     d="m 1399.4988,0.50160211 c 0,0 43,0 43,0 7.8,-0.08 6.99,2.91999999 7,9.77999989 0.04,23.78 3.14,52.85 -26,61.08 -5.44,1.53 -9.4,1.91 -15,1.92 0,0 -31,0 -31,0 -2.35,-0.02 -5.61,0.19 -7.4,-1.6 -1.92,-1.92 -1.59,-5.86 -1.6,-8.4 -0.04,-20.96 -2.8,-46.98 19,-58.6799999 4.44,-2.38 7.15,-2.97 12,-4.09999999 z m -708,0.77999999 c 0,0 80,0 80,0 0,0 0,338.9999979 0,338.9999979 0,0 -74,0 -74,0 0,0 0,-26 0,-26 -22.81,22.81 -44.33,34.38 -77,34 -7.55,-0.09 -17.66,-1.95 -25,-3.88 -36.82,-9.72 -58.4,-43.56 -65.55,-79.12 -2.1,-10.43 -2.82,-20.46 -3.54,-31 0,0 -0.91,-10 -0.91,-10 -0.17,-14.92 2.21,-36.61 6.15,-51 4.15,-15.16 10.76,-29.61 20.52,-42 20.04,-25.45 50.78,-36.049998 82.33,-35.999998 21.84,0.03 41.25,6.589998 57,21.999998 z m 360,0 c 0,0 80,0 80,0 0,0 0,268.9999979 0,268.9999979 0,2.44 -0.13,5.73 0.74,8 5.32,13.85 27.46,7.5 38.26,7 0,0 0,54 0,54 0,0 -19,4.58 -19,4.58 -31.74,5.73 -84.91,8.91 -97.64,-29.58 -1.94,-5.85 -2.35,-9.92 -2.36,-16 z m 442,0 c 0,0 80,0 80,0 0,0 0,268.9999979 0,268.9999979 0,2.43 -0.13,5.75 0.74,8 5.33,13.79 27.54,7.49 38.26,7 0,0 0,54 0,54 0,0 -19,4.58 -19,4.58 -31.86,5.75 -84.71,9.03 -97.48,-29.58 -2.05,-6.18 -2.51,-9.56 -2.52,-16 z m 138,0 c 0,0 80,0 80,0 0,0 0,268.9999979 0,268.9999979 0,2.44 -0.13,5.73 0.74,8 5.32,13.85 27.46,7.5 38.26,7 0,0 0,54 0,54 0,0 -19,4.58 -19,4.58 -31.73,5.73 -84.91,8.92 -97.64,-29.58 -1.94,-5.85 -2.35,-9.92 -2.36,-16 z M 0.49880357,24.281602 c 0,0 83.00000043,0 83.00000043,0 0,0 0,126.999998 0,126.999998 0,0 18.999996,-24 18.999996,-24 0,0 56.4,-71.999998 56.4,-71.999998 0,0 16.4,-21 16.4,-21 0,0 8.29,-8.98 8.29,-8.98 0,0 7.91,-1.02 7.91,-1.02 0,0 85,0 85,0 -2.07,6.14 -7,11 -11,16 0,0 -22.58,28 -22.58,28 0,0 -45.02,55.999998 -45.02,55.999998 0,0 -24.4,30 -24.4,30 0,0 14.42,22 14.42,22 0,0 26.39,43 26.39,43 0,0 47.24,77 47.24,77 0,0 17.15,28 17.15,28 0,0 8.8,16 8.8,16 0,0 -87,0 -87,0 0,0 -7.67,-1.02 -7.67,-1.02 0,0 -5.93,-7.98 -5.93,-7.98 0,0 -11.4,-19 -11.4,-19 0,0 -37.2,-62 -37.2,-62 0,0 -19.8,-34 -19.8,-34 0,0 -23.149996,26 -23.149996,26 -7.53,8.55 -11.83,10.35 -11.85,22 0,0 0,76 0,76 0,0 -83.00000043,0 -83.00000043,0 z m 1198.99999643,9 c 0,0 80,0 80,0 0,0 0,67.999998 0,67.999998 0,0 57,0 57,0 0,0 0,57 0,57 0,0 -57,0 -57,0 0,0 0,106 0,106 0.02,15.64 7.74,21.64 23,21.99 15.84,0.36 24.41,-5.2 36,-6.99 0,0 0,53 0,53 0,1.99 0.26,5.67 -0.99,7.28 -1.53,1.95 -6.62,2.64 -9.01,3.12 0,0 -23,3.88 -23,3.88 -31.4,4.08 -71.3,2.88 -91.84,-25.28 -15.51,-21.26 -14.16,-43.33 -14.16,-68 0,0 0,-95 0,-95 0,0 -37,0 -37,0 0,0 0,-57 0,-57 0,0 37,0 37,0 z m -893,131.999998 c 0,0 0,-51 0,-51 0,-2.45 -0.38,-6.28 1.6,-8.07 1.59,-1.43 8.03,-2.5 10.4,-3.05 0,0 30,-5.029998 30,-5.029998 24.6,-2.94 46.3,-3.96 71,-1 19.7,2.35 39.93,7.769998 54.96,21.439998 22.71,20.65 23.04,53.49 23.04,81.71 0,0 0,34 0,34 0,0 0,43 0,43 0.01,3.56 -0.4,7.67 2.43,10.35 4.36,4.12 12.26,2.35 17.57,1.65 0,0 0,40 0,40 0,2.21 0.22,5.71 -1.02,7.58 -1.4,2.1 -4.7,2.98 -6.98,3.75 -7.15,2.43 -12.51,3.91 -20,5.08 -19.78,3.09 -41.75,1.58 -55.82,-14.41 -4.2,-4.78 -5.56,-8.44 -8.18,-14 -4.59,9.72 -17.34,17.87 -27,22.14 -25.11,11.1 -63.65,10.28 -87,-4.84 -8.92,-5.78 -16.97,-14.79 -21.73,-24.3 -11.41,-22.83 -11.22,-59.54 1.04,-82 7.21,-13.21 17.3,-22.33 30.69,-29.03 13.18,-6.59 33.26,-10.95 48,-10.97 0,0 48,0 48,0 0,-4.74 0.13,-8.43 -1.56,-13 -3.52,-9.51 -12,-14.21 -21.44,-16.24 -14.61,-3.39 -35.1,-1.69 -50,0 0,0 -17,2.49 -17,2.49 z m 513,0 c 0,0 0,-51 0,-51 0,-2 -0.26,-5.67 0.99,-7.28 1.59,-2.04 8.4,-3.18 11.01,-3.72 0,0 30,-5.119998 30,-5.119998 26.24,-3.17 52.82,-4.29 79,0 16.33,2.739998 33.42,8.059998 46,19.289998 16.26,14.52 23.97,38.43 24,59.83 0,0 0,19 0,19 0,0 0,38 0,38 0,0 0,42 0,42 0.02,4.17 -0.08,8.5 3.28,11.57 4.1,3.76 11.74,2.32 16.72,1.43 0,0 0,49 0,49 0,0 -21,6.11 -21,6.11 -19.48,4.49 -47.59,4.35 -61.68,-12.12 -3.55,-4.16 -6.16,-9 -8.32,-13.99 -7.93,9.13 -12.97,14.11 -24,19.63 -11.2,5.6 -22.68,7.6 -35,8.46 0,0 -8,0.83 -8,0.83 0,0 -8,-0.83 -8,-0.83 -20.38,-1.43 -40.12,-7.6 -53.53,-24.09 -11.1,-13.64 -14.4,-27.98 -15.56,-45 -0.21,-3.15 -0.83,-4.69 -0.59,-8 0.74,-9.82 1.39,-19.54 4.43,-29 6.58,-20.51 21.38,-35.5 41.25,-43.55 27.95,-11.32 61.22,-8.45 91,-8.45 -0.11,-5.21 -0.89,-11.36 -3.41,-16 -6.57,-12.05 -22.06,-14.98 -34.59,-15 0,0 -14,0 -14,0 -15.13,0.02 -44.46,5.07 -60,8 z m 972,0 c 0,0 0,-51 0,-51 0,-2.45 -0.38,-6.28 1.6,-8.07 1.59,-1.43 8.03,-2.5 10.4,-3.05 0,0 30,-5.029998 30,-5.029998 0,0 47,-2.85 47,-2.85 0,0 12,0.91 12,0.91 24.4,1.68 49.38,5.909998 67.91,23.379998 21.59,20.35 22.09,52.28 22.09,79.71 0,0 0,34 0,34 0,0 0,38 0,38 0,4.04 -0.75,12.51 1.74,15.61 3.65,4.55 11.3,3.6 16.26,2.39 0,0 0,41 0,41 0,2.14 0.23,5.71 -1.02,7.49 -1.32,1.88 -4.86,2.8 -6.98,3.51 -6.41,2.13 -12.31,3.61 -19,4.57 -19.56,2.81 -40.94,1.21 -54.82,-14.57 -4.2,-4.78 -5.56,-8.44 -8.18,-14 -4.32,9.13 -16.01,16.96 -25,21.22 -24.86,11.77 -63.15,11.55 -87,-2.67 -9.12,-5.44 -17.6,-14.22 -22.69,-23.55 -12.83,-23.51 -12.61,-62.93 1.14,-86 7.13,-11.96 17.8,-21.82 30.55,-27.56 13.84,-6.24 31.8,-10.42 47,-10.44 0,0 48,0 48,0 0,-4.74 0.13,-8.43 -1.56,-13 -3.52,-9.51 -12,-14.21 -21.44,-16.24 -14.61,-3.39 -35.1,-1.69 -50,0 0,0 -17,2.49 -17,2.49 z m -423,-64 c 0,0 81,0 81,0 0,0 0,239 0,239 0,0 -81,0 -81,0 z m -722,55.3 c -16.83,3.28 -27.16,16.02 -32.33,31.7 -2.58,7.82 -4.63,17.77 -4.67,26 -0.13,27.95 1.38,65.15 36,71.55 4.08,0.57 9.89,0.7 14,0 7.9,-0.87 26.76,-6.12 31.01,-13.02 1.23,-2 0.99,-5.23 0.99,-7.53 0,0 0,-87 0,-87 -0.02,-9.88 -3.02,-10.7 -12,-15.19 -10.98,-5.49 -20.75,-7.73 -33,-6.51 z m -266,70.84 c -20.39,3.26 -31.74,13.25 -32,34.86 0,0 0,22 0,22 0.04,2.14 -0.04,4.77 1.6,6.4 1.92,1.92 5.86,1.59 8.4,1.6 0,0 18,0 18,0 18.52,-0.03 36.12,-4.52 41.1,-25 2.05,-8.43 2.02,-22.14 1.9,-31 -0.04,-2.37 0.04,-5.58 -1.74,-7.4 -1.9,-1.94 -5.73,-1.59 -8.26,-1.46 z m 514,0 c -4.94,0.9 -10.5,1.63 -15,3.85 -14.35,7.08 -17.98,21.21 -18,36.01 0,0 0,17 0,17 0.04,1.95 -0.1,4.63 1.6,5.98 1.59,1.25 5.41,1.02 7.4,1.02 0,0 27,0 27,0 24.75,-0.04 34.96,-15.87 35,-39 0,0 0,-17 0,-17 -0.04,-2.14 0.04,-4.77 -1.6,-6.4 -1.92,-1.92 -5.86,-1.59 -8.4,-1.46 z m 972,0 c -6.14,1.05 -10.25,1.33 -16,4.24 -12.9,6.5 -16.98,19.08 -17,32.62 0,0 0,20 0,20 0.04,1.95 -0.1,4.63 1.6,5.98 1.59,1.25 5.41,1.02 7.4,1.02 0,0 27,0 27,0 20.17,-0.03 33.75,-12.41 34,-33 0,0 0,-23 0,-23 -0.01,-1.78 0.17,-4.82 -0.99,-6.26 -1.71,-2.12 -6.51,-1.74 -9.01,-1.6 z" />
</svg>
