<?xml version="1.0" encoding="UTF-8" standalone="no"?>
<!DOCTYPE svg PUBLIC "-//W3C//DTD SVG 20010904//EN"
              "http://www.w3.org/TR/2001/REC-SVG-20010904/DTD/svg10.dtd">

<svg xmlns="http://www.w3.org/2000/svg"
     width="27.7778in" height="7.33333in"
     viewBox="0 0 2000 528">
  <path id="Selection"
        fill="none" stroke="black" stroke-width="1"
        d="M 1399.00,0.22
           C 1399.00,0.22 1442.00,0.22 1442.00,0.22
             1449.80,0.14 1448.99,3.14 1449.00,10.00
             1449.04,33.78 1452.14,62.85 1423.00,71.08
             1417.56,72.61 1413.60,72.99 1408.00,73.00
             1408.00,73.00 1377.00,73.00 1377.00,73.00
             1374.65,72.98 1371.39,73.19 1369.60,71.40
             1367.68,69.48 1368.01,65.54 1368.00,63.00
             1367.96,42.04 1365.20,16.02 1387.00,4.32
             1391.44,1.94 1394.15,1.35 1399.00,0.22 Z
           M 691.00,1.00
           C 691.00,1.00 771.00,1.00 771.00,1.00
             771.00,1.00 771.00,340.00 771.00,340.00
             771.00,340.00 697.00,340.00 697.00,340.00
             697.00,340.00 697.00,314.00 697.00,314.00
             674.19,336.81 652.67,348.38 620.00,348.00
             612.45,347.91 602.34,346.05 595.00,344.12
             558.18,334.40 536.60,300.56 529.45,265.00
             527.35,254.57 526.63,244.54 525.91,234.00
             525.91,234.00 525.00,224.00 525.00,224.00
             524.83,209.08 527.21,187.39 531.15,173.00
             535.30,157.84 541.91,143.39 551.67,131.00
             571.71,105.55 602.45,94.95 634.00,95.00
             655.84,95.03 675.25,101.59 691.00,117.00
             691.00,117.00 691.00,1.00 691.00,1.00 Z
           M 1051.00,1.00
           C 1051.00,1.00 1131.00,1.00 1131.00,1.00
             1131.00,1.00 1131.00,270.00 1131.00,270.00
             1131.00,272.44 1130.87,275.73 1131.74,278.00
             1137.06,291.85 1159.20,285.50 1170.00,285.00
             1170.00,285.00 1170.00,339.00 1170.00,339.00
             1170.00,339.00 1151.00,343.58 1151.00,343.58
             1119.26,349.31 1066.09,352.49 1053.36,314.00
             1051.42,308.15 1051.01,304.08 1051.00,298.00
             1051.00,298.00 1051.00,1.00 1051.00,1.00 Z
           M 1493.00,1.00
           C 1493.00,1.00 1573.00,1.00 1573.00,1.00
             1573.00,1.00 1573.00,270.00 1573.00,270.00
             1573.00,272.43 1572.87,275.75 1573.74,278.00
             1579.07,291.79 1601.28,285.49 1612.00,285.00
             1612.00,285.00 1612.00,339.00 1612.00,339.00
             1612.00,339.00 1593.00,343.58 1593.00,343.58
             1561.14,349.33 1508.29,352.61 1495.52,314.00
             1493.47,307.82 1493.01,304.44 1493.00,298.00
             1493.00,298.00 1493.00,1.00 1493.00,1.00 Z
           M 1631.00,1.00
           C 1631.00,1.00 1711.00,1.00 1711.00,1.00
             1711.00,1.00 1711.00,270.00 1711.00,270.00
             1711.00,272.44 1710.87,275.73 1711.74,278.00
             1717.06,291.85 1739.20,285.50 1750.00,285.00
             1750.00,285.00 1750.00,339.00 1750.00,339.00
             1750.00,339.00 1731.00,343.58 1731.00,343.58
             1699.27,349.31 1646.09,352.50 1633.36,314.00
             1631.42,308.15 1631.01,304.08 1631.00,298.00
             1631.00,298.00 1631.00,1.00 1631.00,1.00 Z
           M 0.00,24.00
           C 0.00,24.00 83.00,24.00 83.00,24.00
             83.00,24.00 83.00,151.00 83.00,151.00
             83.00,151.00 102.00,127.00 102.00,127.00
             102.00,127.00 158.40,55.00 158.40,55.00
             158.40,55.00 174.80,34.00 174.80,34.00
             174.80,34.00 183.09,25.02 183.09,25.02
             183.09,25.02 191.00,24.00 191.00,24.00
             191.00,24.00 276.00,24.00 276.00,24.00
             273.93,30.14 269.00,35.00 265.00,40.00
             265.00,40.00 242.42,68.00 242.42,68.00
             242.42,68.00 197.40,124.00 197.40,124.00
             197.40,124.00 173.00,154.00 173.00,154.00
             173.00,154.00 187.42,176.00 187.42,176.00
             187.42,176.00 213.81,219.00 213.81,219.00
             213.81,219.00 261.05,296.00 261.05,296.00
             261.05,296.00 278.20,324.00 278.20,324.00
             278.20,324.00 287.00,340.00 287.00,340.00
             287.00,340.00 200.00,340.00 200.00,340.00
             200.00,340.00 192.33,338.98 192.33,338.98
             192.33,338.98 186.40,331.00 186.40,331.00
             186.40,331.00 175.00,312.00 175.00,312.00
             175.00,312.00 137.80,250.00 137.80,250.00
             137.80,250.00 118.00,216.00 118.00,216.00
             118.00,216.00 94.85,242.00 94.85,242.00
             87.32,250.55 83.02,252.35 83.00,264.00
             83.00,264.00 83.00,340.00 83.00,340.00
             83.00,340.00 0.00,340.00 0.00,340.00
             0.00,340.00 0.00,24.00 0.00,24.00 Z
           M 1199.00,33.00
           C 1199.00,33.00 1279.00,33.00 1279.00,33.00
             1279.00,33.00 1279.00,101.00 1279.00,101.00
             1279.00,101.00 1336.00,101.00 1336.00,101.00
             1336.00,101.00 1336.00,158.00 1336.00,158.00
             1336.00,158.00 1279.00,158.00 1279.00,158.00
             1279.00,158.00 1279.00,264.00 1279.00,264.00
             1279.02,279.64 1286.74,285.64 1302.00,285.99
             1317.84,286.35 1326.41,280.79 1338.00,279.00
             1338.00,279.00 1338.00,332.00 1338.00,332.00
             1338.00,333.99 1338.26,337.67 1337.01,339.28
             1335.48,341.23 1330.39,341.92 1328.00,342.40
             1328.00,342.40 1305.00,346.28 1305.00,346.28
             1273.60,350.36 1233.70,349.16 1213.16,321.00
             1197.65,299.74 1199.00,277.67 1199.00,253.00
             1199.00,253.00 1199.00,158.00 1199.00,158.00
             1199.00,158.00 1162.00,158.00 1162.00,158.00
             1162.00,158.00 1162.00,101.00 1162.00,101.00
             1162.00,101.00 1199.00,101.00 1199.00,101.00
             1199.00,101.00 1199.00,33.00 1199.00,33.00 Z
           M 306.00,165.00
           C 306.00,165.00 306.00,114.00 306.00,114.00
             306.00,111.55 305.62,107.72 307.60,105.93
             309.19,104.50 315.63,103.43 318.00,102.88
             318.00,102.88 348.00,97.85 348.00,97.85
             372.60,94.91 394.30,93.89 419.00,96.85
             438.70,99.20 458.93,104.62 473.96,118.29
             496.67,138.94 497.00,171.78 497.00,200.00
             497.00,200.00 497.00,234.00 497.00,234.00
             497.00,234.00 497.00,277.00 497.00,277.00
             497.01,280.56 496.60,284.67 499.43,287.35
             503.79,291.47 511.69,289.70 517.00,289.00
             517.00,289.00 517.00,329.00 517.00,329.00
             517.00,331.21 517.22,334.71 515.98,336.58
             514.58,338.68 511.28,339.56 509.00,340.33
             501.85,342.76 496.49,344.24 489.00,345.41
             469.22,348.50 447.25,346.99 433.18,331.00
             428.98,326.22 427.62,322.56 425.00,317.00
             420.41,326.72 407.66,334.87 398.00,339.14
             372.89,350.24 334.35,349.42 311.00,334.30
             302.08,328.52 294.03,319.51 289.27,310.00
             277.86,287.17 278.05,250.46 290.31,228.00
             297.52,214.79 307.61,205.67 321.00,198.97
             334.18,192.38 354.26,188.02 369.00,188.00
             369.00,188.00 417.00,188.00 417.00,188.00
             417.00,183.26 417.13,179.57 415.44,175.00
             411.92,165.49 403.44,160.79 394.00,158.76
             379.39,155.37 358.90,157.07 344.00,158.76
             344.00,158.76 327.00,161.25 327.00,161.25
             327.00,161.25 306.00,165.00 306.00,165.00 Z
           M 819.00,165.00
           C 819.00,165.00 819.00,114.00 819.00,114.00
             819.00,112.00 818.74,108.33 819.99,106.72
             821.58,104.68 828.39,103.54 831.00,103.00
             831.00,103.00 861.00,97.88 861.00,97.88
             887.24,94.71 913.82,93.59 940.00,97.88
             956.33,100.62 973.42,105.94 986.00,117.17
             1002.26,131.69 1009.97,155.60 1010.00,177.00
             1010.00,177.00 1010.00,196.00 1010.00,196.00
             1010.00,196.00 1010.00,234.00 1010.00,234.00
             1010.00,234.00 1010.00,276.00 1010.00,276.00
             1010.02,280.17 1009.92,284.50 1013.28,287.57
             1017.38,291.33 1025.02,289.89 1030.00,289.00
             1030.00,289.00 1030.00,338.00 1030.00,338.00
             1030.00,338.00 1009.00,344.11 1009.00,344.11
             989.52,348.60 961.41,348.46 947.32,331.99
             943.77,327.83 941.16,322.99 939.00,318.00
             931.07,327.13 926.03,332.11 915.00,337.63
             903.80,343.23 892.32,345.23 880.00,346.09
             880.00,346.09 872.00,346.92 872.00,346.92
             872.00,346.92 864.00,346.09 864.00,346.09
             843.62,344.66 823.88,338.49 810.47,322.00
             799.37,308.36 796.07,294.02 794.91,277.00
             794.70,273.85 794.08,272.31 794.32,269.00
             795.06,259.18 795.71,249.46 798.75,240.00
             805.33,219.49 820.13,204.50 840.00,196.45
             867.95,185.13 901.22,188.00 931.00,188.00
             930.89,182.79 930.11,176.64 927.59,172.00
             921.02,159.95 905.53,157.02 893.00,157.00
             893.00,157.00 879.00,157.00 879.00,157.00
             863.87,157.02 834.54,162.07 819.00,165.00 Z
           M 1791.00,165.00
           C 1791.00,165.00 1791.00,114.00 1791.00,114.00
             1791.00,111.55 1790.62,107.72 1792.60,105.93
             1794.19,104.50 1800.63,103.43 1803.00,102.88
             1803.00,102.88 1833.00,97.85 1833.00,97.85
             1833.00,97.85 1880.00,95.00 1880.00,95.00
             1880.00,95.00 1892.00,95.91 1892.00,95.91
             1916.40,97.59 1941.38,101.82 1959.91,119.29
             1981.50,139.64 1982.00,171.57 1982.00,199.00
             1982.00,199.00 1982.00,233.00 1982.00,233.00
             1982.00,233.00 1982.00,271.00 1982.00,271.00
             1982.00,275.04 1981.25,283.51 1983.74,286.61
             1987.39,291.16 1995.04,290.21 2000.00,289.00
             2000.00,289.00 2000.00,330.00 2000.00,330.00
             2000.00,332.14 2000.23,335.71 1998.98,337.49
             1997.66,339.37 1994.12,340.29 1992.00,341.00
             1985.59,343.13 1979.69,344.61 1973.00,345.57
             1953.44,348.38 1932.06,346.78 1918.18,331.00
             1913.98,326.22 1912.62,322.56 1910.00,317.00
             1905.68,326.13 1893.99,333.96 1885.00,338.22
             1860.14,349.99 1821.85,349.77 1798.00,335.55
             1788.88,330.11 1780.40,321.33 1775.31,312.00
             1762.48,288.49 1762.70,249.07 1776.45,226.00
             1783.58,214.04 1794.25,204.18 1807.00,198.44
             1820.84,192.20 1838.80,188.02 1854.00,188.00
             1854.00,188.00 1902.00,188.00 1902.00,188.00
             1902.00,183.26 1902.13,179.57 1900.44,175.00
             1896.92,165.49 1888.44,160.79 1879.00,158.76
             1864.39,155.37 1843.90,157.07 1829.00,158.76
             1829.00,158.76 1812.00,161.25 1812.00,161.25
             1812.00,161.25 1791.00,165.00 1791.00,165.00 Z
           M 1368.00,101.00
           C 1368.00,101.00 1449.00,101.00 1449.00,101.00
             1449.00,101.00 1449.00,340.00 1449.00,340.00
             1449.00,340.00 1368.00,340.00 1368.00,340.00
             1368.00,340.00 1368.00,101.00 1368.00,101.00 Z
           M 646.00,156.30
           C 629.17,159.58 618.84,172.32 613.67,188.00
             611.09,195.82 609.04,205.77 609.00,214.00
             608.87,241.95 610.38,279.15 645.00,285.55
             649.08,286.12 654.89,286.25 659.00,285.55
             666.90,284.68 685.76,279.43 690.01,272.53
             691.24,270.53 691.00,267.30 691.00,265.00
             691.00,265.00 691.00,178.00 691.00,178.00
             690.98,168.12 687.98,167.30 679.00,162.81
             668.02,157.32 658.25,155.08 646.00,156.30 Z
           M 380.00,227.14
           C 359.61,230.40 348.26,240.39 348.00,262.00
             348.00,262.00 348.00,284.00 348.00,284.00
             348.04,286.14 347.96,288.77 349.60,290.40
             351.52,292.32 355.46,291.99 358.00,292.00
             358.00,292.00 376.00,292.00 376.00,292.00
             394.52,291.97 412.12,287.48 417.10,267.00
             419.15,258.57 419.12,244.86 419.00,236.00
             418.96,233.63 419.04,230.42 417.26,228.60
             415.36,226.66 411.53,227.01 409.00,227.14
             409.00,227.14 380.00,227.14 380.00,227.14 Z
           M 894.00,227.14
           C 889.06,228.04 883.50,228.77 879.00,230.99
             864.65,238.07 861.02,252.20 861.00,267.00
             861.00,267.00 861.00,284.00 861.00,284.00
             861.04,285.95 860.90,288.63 862.60,289.98
             864.19,291.23 868.01,291.00 870.00,291.00
             870.00,291.00 897.00,291.00 897.00,291.00
             921.75,290.96 931.96,275.13 932.00,252.00
             932.00,252.00 932.00,235.00 932.00,235.00
             931.96,232.86 932.04,230.23 930.40,228.60
             928.48,226.68 924.54,227.01 922.00,227.14
             922.00,227.14 894.00,227.14 894.00,227.14 Z
           M 1866.00,227.14
           C 1859.86,228.19 1855.75,228.47 1850.00,231.38
             1837.10,237.88 1833.02,250.46 1833.00,264.00
             1833.00,264.00 1833.00,284.00 1833.00,284.00
             1833.04,285.95 1832.90,288.63 1834.60,289.98
             1836.19,291.23 1840.01,291.00 1842.00,291.00
             1842.00,291.00 1869.00,291.00 1869.00,291.00
             1889.17,290.97 1902.75,278.59 1903.00,258.00
             1903.00,258.00 1903.00,235.00 1903.00,235.00
             1902.99,233.22 1903.17,230.18 1902.01,228.74
             1900.30,226.62 1895.50,227.00 1893.00,227.14
             1893.00,227.14 1866.00,227.14 1866.00,227.14 Z" />
</svg>
