<?xml version="1.0" encoding="utf-8" standalone="no"?>
<!DOCTYPE svg PUBLIC "-//W3C//DTD SVG 1.1//EN" "http://www.w3.org/Graphics/SVG/1.1/DTD/svg11.dtd">
<svg version="1.1" xmlns="http://www.w3.org/2000/svg" xmlns:xlink="http://www.w3.org/1999/xlink" width="595pt" height="842pt" viewBox="0 0 595 842" xml:space="preserve" enable-background="new 0 0 595 842">
<g color-interpolation="linearRGB" transform="scale(0.12,0.12)">
<g>
	<rect x="0" y="0" width="4960.62" height="7015.734" fill="#FFFFFF" fill-opacity="1" />
</g>
<g id="Map_Frame">
<g id="North_East_Park_Lands_Precinct">
<clipPath id="cp_2">
<path d="M4960.62 7015.734 L4960.62 0 L0 9.094947e-13 L0 7015.734 Z " />
</clipPath>
<g clip-path="url(#cp_2)">
<g transform="matrix(8.3333333 0 0 -8.3333333 2480.31 3507.867)">
<path d="M126.2859 206.76876 L126.39854 206.84839 L131.88114 198.62449 L134.58396 191.52961 L134.58606 191.39521 L134.69874 184.60305 L132.7104 174.47654 L132.13412 173.47434 L131.1719 172.95215 L122.25449 174.05633 L121.95981 171.66519 L121.15999 164.86704 L120.54635 163.08748 L119.47959 161.36338 L118.13362 160.37071 L116.65304 158.74912 L115.13574 154.74112 L114.74904 152.29692 L115.08466 148.15271 L116.77737 143.4832 L117.51427 138.95229 L117.42903 135.1675 L117.32327 134.49692 L116.7297 132.00759 L116.01718 130.14286 L115.01867 128.35297 L112.51942 125.28934 L109.85008 123.14541 L99.079771 120.3171 L97.027324 120.53096 L94.609866 121.08794 L92.400882 122.20561 L90.705059 123.60317 L89.449996 125.23355 L88.214312 127.37991 L85.71541 132.57388 L82.475532 137.03949 L79.185765 139.14183 L75.494819 140.25578 L73.058961 140.36764 L70.541943 140.29008 L68.007633 139.93522 L63.607808 138.74292 L59.302041 135.64958 L54.24543 130.88689 L47.561774 123.82203 L40.636104 115.40946 L36.689087 109.34702 L34.541976 105.20522 L31.814653 98.664934 L30.759896 95.668398 L30.739603 95.071861 L29.847593 91.812875 L29.757864 90.540727 L29.924451 89.105729 L30.194476 87.764146 L30.613281 86.613836 L37.532702 73.765753 L37.797135 73.970388 L38.188264 73.196364 L38.533832 71.808705 L38.652926 70.552689 L38.163035 67.837722 L37.500116 66.03243 L36.854952 65.220022 L35.987011 64.429737 L34.933556 63.588597 L33.267573 62.65457 L30.946699 61.748748 L29.848663 61.52485 L28.560267 61.404674 L16.020374 62.268891 L13.917883 63.064394 L11.523991 64.530573 L5.1203842 68.882763 L2.420905 70.44282 L-1.2426353 71.396496 L-3.5613708 71.782613 L-5.9099731 72.3063 L-8.2920371 73.183595 L-15.738314 77.078197 L-16.011805 77.488589 L-16.105026 77.894973 L-15.806127 78.548474 L-14.452058 79.981925 L-12.809616 81.891493 L-11.351554 84.03059 L-9.7131968 87.428421 L-8.8041406 90.343063 L-7.9790413 94.315218 L-6.5601494 93.956056 L-1.6452444 117.7363 L-0.87949216 121.44141 L1.7824023 134.32085 L2.4980587 134.20438 L7.3475479 127.31505 L8.8323581 125.20573 L9.4282252 124.35932 L10.214013 124.89884 L12.238977 126.40775 L23.12201 134.05937 L29.426688 125.1712 L76.087181 157.96452 L69.783741 166.80458 L83.457439 176.42327 L86.306754 178.5075 L126.2859 206.76876 Z "  fill="#828282" fill-rule="evenodd" stroke="#000000" fill-opacity="0" stroke-opacity="1"  stroke-width="1" stroke-linecap="round" stroke-linejoin="round" stroke-miterlimit="10" />
</g>
</g>
</g>
<!-- Begin_Label-->
<clipPath id="cp_3">
<path d="M4960.62 7015.734 L4960.62 0 L0 9.094947e-13 L0 7015.734 Z " />
</clipPath>
<g clip-path="url(#cp_3)">
<g id="EmbdFile__1" transform="matrix(1 0 0 1 -6.7137762e-13 9.094947e-13)">
<g>
<g color-interpolation="linearRGB" transform="scale(1,1)">
</g>
</g>
</g>
</g>
<!-- End_Label-->
</g>
</g>
</svg>
