<?xml version="1.0" encoding="utf-8" standalone="no"?>
<!DOCTYPE svg PUBLIC "-//W3C//DTD SVG 1.1//EN" "http://www.w3.org/Graphics/SVG/1.1/DTD/svg11.dtd">
<svg version="1.1" xmlns="http://www.w3.org/2000/svg" xmlns:xlink="http://www.w3.org/1999/xlink" width="595pt" height="842pt" viewBox="0 0 595 842" xml:space="preserve" enable-background="new 0 0 595 842">
<g color-interpolation="linearRGB" transform="scale(0.12,0.12)">
<g>
	<rect x="0" y="0" width="4960.62" height="7015.734" fill="#FFFFFF" fill-opacity="1" />
</g>
<g id="Map_Frame">
<g id="North_Park_Lands_Precinct">
<clipPath id="cp_2">
<path d="M4960.62 7015.734 L4960.62 0 L0 9.094947e-13 L0 7015.734 Z " />
</clipPath>
<g clip-path="url(#cp_2)">
<g transform="matrix(8.3333333 0 0 -8.3333333 2480.31 3507.867)">
<path d="M134.20597 218.41506 L134.21752 216.61407 L134.2672 213.43831 L134.27904 212.56971 L134.43919 200.82183 L134.44867 200.1271 L134.2779 200.38313 L128.82371 208.5606 L128.31004 209.33501 L126.76391 211.52543 L116.59303 225.72113 L115.84601 226.77095 L115.82109 226.80597 L94.468379 256.81304 L90.08578 261.32525 L61.584429 241.20746 L66.38944 234.46671 L2.5630106 189.46785 L-7.3492101 220.02458 L-20.884603 261.75028 L-21.853728 264.7238 L-21.941731 265.0479 L-24.727022 264.20385 L-27.079657 263.57978 L-27.086564 263.57765 L-27.059686 263.49416 L-48.132503 257.06902 L-58.86092 253.79773 L-73.135458 249.44544 L-77.719071 263.64717 L-78.187366 265.09773 L-79.209679 268.26388 L-79.40572 268.86986 L-80.192784 268.62918 L-84.173056 267.41891 L-133.56223 252.44491 L-133.65461 252.41689 L-137.13297 262.39924 L-140.6069 272.36876 L-145.63288 286.7923 L-146.84809 290.6543 L-147.45996 292.59883 L-148.14533 294.53874 L-148.29279 296.84344 L-147.80978 298.8544 L-147.69034 299.0789 L-147.11888 299.46876 L-146.22516 299.83499 L-145.74864 299.93891 L-145.00852 300.1003 L-142.09382 300.53396 L-135.36394 301.53526 L-132.18592 302.05066 L-129.47867 302.48971 L-126.9083 302.74229 L-126.90699 302.74109 L-126.37368 302.2549 L-116.74007 303.37222 L-83.637181 306.69101 L-76.346873 307.32336 L-75.783798 307.427 L-72.575539 307.74865 L-53.058051 309.70535 L-52.906243 309.72057 L-52.896644 309.70647 L-48.063673 309.74005 L-47.715914 309.76052 L-47.245441 309.74009 L-46.643686 309.67871 L-44.802677 309.406 L-43.930922 309.22185 L-43.592376 309.15034 L-41.642388 308.73027 L-38.937704 308.10521 L-35.565474 307.24439 L0.88978705 294.83976 L3.5420953 294.02808 L52.695152 278.29518 L85.545254 267.77931 L94.038261 265.0553 L103.60371 261.97348 L112.52265 249.2786 L120.28055 238.23614 L122.27446 235.39806 L127.24286 228.32621 L134.20597 218.41506 Z "  fill="#828282" fill-rule="evenodd" stroke="#000000" fill-opacity="0" stroke-opacity="1"  stroke-width="1" stroke-linecap="round" stroke-linejoin="round" stroke-miterlimit="10" />
</g>
</g>
</g>
<!-- Begin_Label-->
<clipPath id="cp_3">
<path d="M4960.62 7015.734 L4960.62 0 L0 9.094947e-13 L0 7015.734 Z " />
</clipPath>
<g clip-path="url(#cp_3)">
<g id="EmbdFile__1" transform="matrix(1 0 0 1 -6.7137762e-13 9.094947e-13)">
<g>
<g color-interpolation="linearRGB" transform="scale(1,1)">
</g>
</g>
</g>
</g>
<!-- End_Label-->
</g>
</g>
</svg>
