<?xml version="1.0" encoding="utf-8" standalone="no"?>
<!DOCTYPE svg PUBLIC "-//W3C//DTD SVG 1.1//EN" "http://www.w3.org/Graphics/SVG/1.1/DTD/svg11.dtd">
<svg version="1.1" xmlns="http://www.w3.org/2000/svg" xmlns:xlink="http://www.w3.org/1999/xlink" width="595pt" height="842pt" viewBox="0 0 595 842" xml:space="preserve" enable-background="new 0 0 595 842">
<g color-interpolation="linearRGB" transform="scale(0.12,0.12)">
<g>
	<rect x="0" y="0" width="4960.62" height="7015.734" fill="#FFFFFF" fill-opacity="1" />
</g>
<g id="Map_Frame">
<g id="Riverbank_Precinct">
<clipPath id="cp_2">
<path d="M4960.62 7015.734 L4960.62 0 L0 9.094947e-13 L0 7015.734 Z " />
</clipPath>
<g clip-path="url(#cp_2)">
<g transform="matrix(8.3333333 0 0 -8.3333333 2480.31 3507.867)">
<path d="M-214.56771 9.8039439 L-186.5536 56.810109 L-185.53415 58.520673 L-168.39761 33.966389 L-167.08403 32.471967 L-155.33774 43.353287 L-152.87106 45.509726 L-141.9826 46.779323 L-140.44437 46.642745 L-137.81109 45.942202 L-135.12593 47.430749 L-134.2069 48.636167 L-128.72869 45.580683 L-116.85264 39.430454 L-112.84212 37.717701 L-109.11883 36.792809 L-106.1817 36.911593 L-97.230774 38.527415 L-95.972336 38.617261 L-90.120324 38.9874 L-90.141236 39.317932 L-90.234213 41.846083 L-91.336127 64.354941 L-91.370091 66.172087 L-91.289356 68.055886 L-91.099306 70.122236 L-90.85161 71.699661 L-90.552646 73.291131 L-90.234328 74.705642 L-89.806298 76.286418 L-89.304425 77.884755 L-88.62616 79.70578 L-87.934108 81.642895 L-87.342854 83.291342 L-86.671405 85.128137 L-86.073824 86.77666 L-85.404128 88.706934 L-84.698032 91.62432 L-84.240096 94.188741 L-84.098158 97.620782 L-84.256704 99.8933 L-84.690095 102.89237 L-85.409552 105.51214 L-86.046998 107.70482 L-78.080371 110.1618 L-30.641408 99.434565 L-28.541945 77.869358 L-28.223409 75.313054 L-27.608575 70.360848 L-26.874326 65.124469 L-26.530046 62.056718 L-25.834039 56.822414 L-24.7694 49.36427 L-19.424068 49.019049 L-10.441274 50.474573 L-7.8360724 50.720194 L-8.9730594 59.35644 L-7.4424182 59.383125 L-5.9957597 59.432138 L-4.2386823 59.352794 L-2.7206681 59.320479 L-1.4257531 59.257138 L-0.20318571 59.067655 L1.0235692 58.755368 L2.5210966 58.49663 L4.2908654 58.281661 L5.8491959 58.138846 L7.231856 57.857328 L8.2351897 57.573993 L9.8859938 56.918508 L10.854771 56.451205 L12.078163 55.542329 L13.858123 53.773037 L16.209406 51.7071 L19.079376 49.427714 L20.829714 48.301319 L22.334161 47.309079 L23.560374 46.623405 L24.645346 45.980161 L26.025017 45.185199 L27.275621 44.707446 L28.26071 44.304811 L29.569889 44.035881 L30.923687 43.876665 L32.411267 43.982435 L33.750751 44.07737 L34.737592 44.284157 L35.86708 44.635717 L36.83681 45.070911 L37.617573 45.472902 L38.425085 45.989889 L39.305975 46.58591 L40.095976 47.295485 L40.967834 48.071519 L41.734952 48.84919 L42.374254 49.549604 L43.0226 50.418911 L43.61419 51.341199 L44.349921 52.595734 L45.123468 54.184562 L45.799646 55.557933 L46.328628 56.839125 L46.824664 58.208115 L47.202651 59.740263 L47.563861 61.530815 L47.879344 63.506121 L48.038006 65.246036 L48.145671 66.358452 L48.149807 67.117929 L48.14339 68.321866 L47.961007 69.397225 L47.687941 70.56623 L47.474609 71.309086 L47.082243 72.199228 L46.701899 73.278465 L46.275388 74.412296 L45.800226 75.560789 L45.24595 76.867468 L45.00882 77.619691 L44.57253 78.570365 L44.372301 79.017387 L43.793532 79.964557 L43.069617 81.168557 L42.438935 81.928588 L41.732131 82.911307 L41.285494 83.758645 L40.975333 84.506294 L40.323405 85.807858 L39.820643 87.324648 L39.596732 88.458993 L39.582868 89.185138 L39.546224 90.17542 L39.702747 91.165894 L39.988415 92.122328 L40.600104 93.428298 L40.964858 93.314822 L41.859148 92.942891 L42.38058 92.540115 L43.162425 91.526692 L43.758898 89.952643 L56.495773 56.340203 L57.625004 53.39058 L57.677818 53.252597 L57.679042 53.249402 L57.687211 53.252674 L57.943862 53.355714 L60.303055 54.30296 L60.322937 54.252967 L60.766403 54.438649 L76.266279 61.162145 L85.394503 60.953953 L85.228354 52.403996 L86.375726 39.36634 L89.892394 36.682258 L90.973049 35.538816 L94.736896 32.414888 L100.64199 27.780587 L101.11801 26.132785 L111.12105 16.414492 L112.13214 5.0744115 L112.03454 4.8204277 L112.06356 4.4949982 L112.20654 4.2281941 L112.65848 -0.83641851 L83.231866 -3.3794643 L76.546509 -2.6916131 L65.44477 -3.6021123 L62.284701 -3.8617138 L42.230821 -5.5067843 L40.302622 -5.1407936 L34.93277 -5.5976216 L24.428135 -6.4913192 L13.776215 -7.3973474 L10.823719 -7.6685967 L5.0340178 -8.1757396 L-13.824172 -9.8286568 L-18.87474 -12.107707 L-27.988237 -12.885971 L-33.25532 -13.298527 L-33.607601 -13.327904 L-33.598685 -13.402107 L-35.798172 -13.587879 L-85.729377 -17.828887 L-89.642056 -18.168297 L-101.91066 -19.167417 L-116.72141 -20.373595 L-117.65863 -20.451689 L-118.1198 -20.195889 L-119.64712 -20.331307 L-120.3808 -20.678551 L-136.30157 -22.005446 L-141.9542 -22.093062 L-144.4758 -22.232552 L-145.8222 -22.003217 L-150.9587 -22.427021 L-152.76073 -22.811012 L-164.30636 -20.158781 L-166.18509 -19.419107 L-169.42527 -18.568045 L-170.07534 -18.320027 L-170.26307 -18.104208 L-170.84921 -17.869577 L-171.54389 -17.729481 L-172.7251 -17.283154 L-179.47019 -14.544261 L-182.3534 -13.107807 L-190.20695 -8.9407831 L-193.45838 -7.6676561 L-197.24806 -6.677001 L-200.94926 -5.2451083 L-202.0696 -4.5336652 L-204.54095 -3.7171472 L-206.7395 -3.2778939 L-208.58747 -2.4235206 L-210.09006 -1.7290466 L-210.75032 -1.4238977 L-210.75443 -1.4220036 L-211.51015 -1.0732785 L-212.95852 -0.4044838 L-213.23462 -0.27698942 L-214.36618 0.24553781 L-215.60278 0.81917875 L-217.20364 1.5541494 L-218.85352 2.3122867 L-219.55001 2.914725 L-219.80773 3.4848356 L-219.29508 4.7414701 L-218.12004 6.8621545 L-216.55543 8.5088226 L-214.56771 9.8039439 Z "  fill="#828282" fill-rule="evenodd" stroke="#000000" fill-opacity="0" stroke-opacity="1"  stroke-width="1" stroke-linecap="round" stroke-linejoin="round" stroke-miterlimit="10" />
</g>
</g>
</g>
<!-- Begin_Label-->
<clipPath id="cp_3">
<path d="M4960.62 7015.734 L4960.62 0 L0 9.094947e-13 L0 7015.734 Z " />
</clipPath>
<g clip-path="url(#cp_3)">
<g id="EmbdFile__1" transform="matrix(1 0 0 1 -6.7137762e-13 9.094947e-13)">
<g>
<g color-interpolation="linearRGB" transform="scale(1,1)">
</g>
</g>
</g>
</g>
<!-- End_Label-->
</g>
</g>
</svg>
