<?xml version="1.0" encoding="utf-8" standalone="no"?>
<!DOCTYPE svg PUBLIC "-//W3C//DTD SVG 1.1//EN" "http://www.w3.org/Graphics/SVG/1.1/DTD/svg11.dtd">
<svg version="1.1" xmlns="http://www.w3.org/2000/svg" xmlns:xlink="http://www.w3.org/1999/xlink" width="595pt" height="842pt" viewBox="0 0 595 842" xml:space="preserve" enable-background="new 0 0 595 842">
<g color-interpolation="linearRGB" transform="scale(0.12,0.12)">
<g>
	<rect x="0" y="0" width="4960.62" height="7015.734" fill="#FFFFFF" fill-opacity="1" />
</g>
<g id="Map_Frame">
<g id="West_Park_Lands_Precinct">
<clipPath id="cp_2">
<path d="M4960.62 7015.734 L4960.62 0 L0 9.094947e-13 L0 7015.734 Z " />
</clipPath>
<g clip-path="url(#cp_2)">
<g transform="matrix(8.3333333 0 0 -8.3333333 2480.31 3507.867)">
<path d="M-220.76159 -183.66732 L-221.7889 -177.47731 L-225.13144 -157.33724 L-225.5692 -154.59891 L-227.02645 -145.75381 L-227.2169 -144.59785 L-227.69605 -141.69075 L-228.02258 -139.70739 L-228.11973 -139.1174 L-228.20104 -138.62404 L-228.20376 -138.60756 L-228.30115 -138.01627 L-231.64255 -117.7428 L-231.72797 -117.22394 L-239.98631 -67.097958 L-240.49075 -64.036032 L-240.92264 -61.250869 L-241.02585 -60.276912 L-241.23033 -57.999923 L-241.33083 -56.461873 L-241.34075 -56.310091 L-241.35299 -55.704509 L-241.36176 -55.590093 L-241.38353 -55.268877 L-241.42552 -53.822308 L-241.41999 -51.723 L-241.38906 -50.929687 L-241.37735 -50.629615 L-241.34256 -49.738494 L-241.33792 -49.620083 L-241.26538 -48.59549 L-241.02362 -45.992814 L-241.01942 -45.971373 L-240.89752 -45.067535 L-241.33831 -45.063799 L-243.60615 -45.028108 L-244.82388 -45.009026 L-244.71087 -43.839222 L-245.46477 -44.052721 L-247.74587 -44.139706 L-247.92422 -43.050741 L-248.25083 -41.043635 L-248.62276 -38.954196 L-251.10758 -23.859957 L-253.26233 -10.770788 L-253.87047 -7.0767754 L-254.16584 -5.2825256 L-255.68785 3.9631166 L-257.16989 12.937252 L-256.84958 13.161794 L-255.91673 13.542783 L-254.87152 13.688122 L-253.93467 13.591371 L-253.09936 13.310471 L-247.18939 10.515129 L-243.48954 9.260814 L-234.19579 4.8714899 L-233.03449 4.1526638 L-230.7718 3.0427606 L-229.48796 2.6402417 L-228.80443 2.3164485 L-228.4379 2.1512276 L-226.57944 1.0844624 L-224.3049 -0.12761678 L-222.61847 -0.98936023 L-222.62095 -1.0336966 L-221.38978 -1.6046317 L-221.39038 -1.6051729 L-220.16226 -2.1709155 L-218.83758 -2.782051 L-217.71413 -3.3005968 L-217.74083 -3.3198337 L-217.5897 -3.5277546 L-217.4461 -3.4242644 L-215.98815 -4.096873 L-215.24836 -4.4379704 L-213.2983 -5.337582 L-209.35183 -7.1585548 L-205.84765 -8.6156499 L-205.8198 -8.5491776 L-198.69707 -11.461848 L-175.33141 -22.504613 L-168.69031 -26.800587 L-163.73346 -31.739329 L-160.82484 -36.736039 L-159.56252 -41.696698 L-159.13342 -45.715122 L-157.777 -62.447602 L-155.78452 -85.772901 L-153.91866 -107.8148 L-153.80494 -109.02398 L-152.74771 -121.52168 L-152.82465 -122.87219 L-151.95837 -130.80138 L-151.93672 -131.05951 L-148.77373 -168.26254 L-148.59372 -170.64738 L-147.25725 -186.28524 L-146.35278 -196.86816 L-145.30869 -210.68718 L-145.35361 -212.79504 L-145.53057 -215.31603 L-145.90257 -219.02939 L-146.16359 -220.97947 L-146.45428 -222.64772 L-146.64258 -223.28222 L-147.16962 -224.74117 L-147.5463 -225.63452 L-148.06263 -226.74874 L-148.632 -228.00379 L-149.086 -229.13352 L-149.59847 -230.33244 L-150.39029 -231.73931 L-151.38213 -233.21362 L-151.55215 -233.4663 L-151.72857 -233.72848 L-151.99052 -234.11791 L-193.81335 -296.28483 L-195.34092 -297.96386 L-195.99283 -298.49806 L-196.83392 -299.23093 L-198.2445 -300.91432 L-199.78918 -303.36654 L-200.49103 -305.80543 L-200.62664 -304.98829 L-210.55801 -245.14798 L-211.65166 -238.55825 L-220.76159 -183.66732 Z "  fill="#828282" fill-rule="evenodd" stroke="#000000" fill-opacity="0" stroke-opacity="1"  stroke-width="1" stroke-linecap="round" stroke-linejoin="round" stroke-miterlimit="10" />
</g>
</g>
</g>
<!-- Begin_Label-->
<clipPath id="cp_3">
<path d="M4960.62 7015.734 L4960.62 0 L0 9.094947e-13 L0 7015.734 Z " />
</clipPath>
<g clip-path="url(#cp_3)">
<g id="EmbdFile__1" transform="matrix(1 0 0 1 -6.7137762e-13 9.094947e-13)">
<g>
<g color-interpolation="linearRGB" transform="scale(1,1)">
</g>
</g>
</g>
</g>
<!-- End_Label-->
</g>
</g>
</svg>
